<?xml version="1.0" encoding="UTF-8" standalone="no"?>
<svg width="120px" height="140px" viewBox="0 0 120 140" version="1.1" xmlns="http://www.w3.org/2000/svg" xmlns:xlink="http://www.w3.org/1999/xlink" xmlns:sketch="http://www.bohemiancoding.com/sketch/ns">
    <title>broco-tree</title>
    <description>Created with Sketch (http://www.bohemiancoding.com/sketch)</description>
    <defs>
        <radialGradient cx="49.9998692%" cy="50.0001454%" fx="49.9998692%" fy="50.0001454%" r="42.550239%" id="radialGradient-1">
            <stop stop-color="#0BB300" offset="0%"></stop>
            <stop stop-color="#237900" offset="100%"></stop>
        </radialGradient>
    </defs>
    <g id="Page-1" stroke="none" stroke-width="1" fill="none" fill-rule="evenodd" sketch:type="MSPage">
        <g id="broco-tree" sketch:type="MSLayerGroup">
            <g id="Layer_1_1_" fill="#502D16" sketch:type="MSShapeGroup">
                <path d="M116.896107,18.328567 C112.976107,10.9863981 104.838926,5.34056893 96.3954362,2.54113592 C90.7116779,0.656673786 83.8727517,-0.380293204 75.1677852,0.34844466 C63.8416107,1.2968835 56.4209396,6.25931845 49.5779866,12.4813903 C47.4867114,11.6349748 43.5583893,10.9334971 41.4357047,11.6042058 C35.2461745,13.5601922 31.0902013,19.8116835 28.7863087,25.4912505 C25.0934228,21.8853476 17.0386577,19.877 11.3387919,22.4213748 C4.87624161,25.3060971 0.576375839,33.0844291 0.143355705,40.9861068 C-0.285369128,48.8095126 3.28134228,56.0078233 8.28536913,60.4280233 C6.26765101,70.3990466 12.3527517,81.7112175 22.8249664,81.4777515 C28.5119463,81.3506272 32.1924832,77.562 35.1836242,73.7301883 C36.018255,79.4286485 35.8587919,83.1209204 35.4743624,88.2021126 C34.649396,99.1026816 32.5959732,112.100126 30.6762416,124.0158 C29.9157047,128.734783 29.206443,131.40925 32.1302013,133.809227 C33.7463087,135.13607 37.3130201,136.515004 39.8362416,137.171408 C45.8544966,138.737654 53.6204027,139.262616 58.7377181,138.925777 C66.0257718,138.446159 73.3449664,137.592726 78.5116779,134.832429 C79.8475168,134.119076 81.9114094,132.418687 82.2920805,131.032196 C82.9484564,128.639507 81.5288591,124.687318 81.1285906,122.407988 C80.7060403,120.000454 80.3116779,116.799676 79.9656376,114.075816 C79.224698,108.245913 78.289396,102.102652 78.0754362,96.5342854 C77.6816107,86.2901204 79.8214765,75.332332 80.4016107,65.9826252 C82.0268456,68.8314505 83.7030872,71.6287243 85.9267114,73.8767456 C88.5374497,75.8070913 91.3822819,77.3706388 94.9412081,77.6769786 C104.336913,78.4861476 110.114631,71.4638136 112.388456,64.6671184 C113.031409,62.7459495 114.532617,57.0102427 114.569664,56.4809631 C114.755436,53.8046058 112.673826,52.2586019 112.243221,49.9028893 C115.976107,45.1987515 119.355436,40.6862447 119.948993,33.3845612 C120.428993,27.477466 119.146577,22.5441806 116.896107,18.328567 L116.896107,18.328567 Z M55.6842953,73.5841709 C53.8663087,70.3574816 53.1138255,66.2295864 51.5304698,62.5562078 C53.7479195,60.4547437 55.5009396,58.0021359 57.4289933,55.6040485 C58.1857718,55.8663942 58.775302,56.2968893 59.464698,56.6272505 C58.2241611,62.2995301 57.3924832,68.382332 55.6842953,73.5841709 L55.6842953,73.5841709 Z" id="path2471"></path>
            </g>
            <g id="Layer_3" transform="translate(1.073826, 0.809709)" fill="url(#radialGradient-1)" sketch:type="MSShapeGroup">
                <path d="M118.148188,29.0669243 C117.646174,17.2745961 108.470604,8.25606019 99.101745,4.2164233 C92.7358389,1.47178058 86.9656376,0.267473786 78.7465772,0.123345631 C65.7656376,-0.104452427 55.6037584,6.04096699 48.7948993,12.840901 C42.4531544,9.1273068 35.594094,13.3086427 32.2198658,18.2494854 C30.5895302,20.6367767 29.3001342,23.7657612 28.2942282,26.2893534 C24.5361074,24.1147456 21.2732886,20.649732 15.2085906,21.3190913 C6.32724832,22.2993786 0.510872483,31.1918699 0.0875167785,39.7378058 C-0.303087248,47.6195107 3.37825503,55.1846194 8.0842953,59.1797223 C6.89503356,64.732435 8.62684564,70.1334621 10.5559732,73.0664971 C14.790604,79.5047612 23.0238926,81.9490019 29.1667114,77.0138272 C33.0918121,73.8597417 35.455302,67.7917845 35.2732886,60.6412466 C37.369396,61.8477126 39.4918121,63.5383845 42.5430872,63.7111223 C49.4550336,64.1022117 53.0880537,57.7713689 56.0649664,53.770868 C62.3691275,57.5074039 71.6410738,59.9910505 79.0375839,60.4949592 C80.3159732,64.9653612 82.0016107,69.1712583 84.9986577,71.8972777 C86.8327517,73.5650078 89.8655034,75.4559476 92.704698,75.844068 C103.24698,77.2848097 108.379597,69.677866 110.907919,61.7586447 C111.229262,60.7519068 112.845638,55.7257748 112.769933,54.7940699 C112.598389,52.7025922 110.47302,51.4154252 110.297718,48.9468932 C114.754094,43.2341282 118.47302,36.6930311 118.148188,29.0669243 L118.148188,29.0669243 Z" id="path2479"></path>
            </g>
        </g>
    </g>
</svg>