<?xml version="1.0" encoding="UTF-8" standalone="no"?>
<svg width="97px" height="93px" viewBox="0 0 97 93" version="1.1" xmlns="http://www.w3.org/2000/svg" xmlns:xlink="http://www.w3.org/1999/xlink" xmlns:sketch="http://www.bohemiancoding.com/sketch/ns">
    <title>cat</title>
    <description>Created with Sketch (http://www.bohemiancoding.com/sketch)</description>
    <defs>
        <radialGradient cx="50.0012821%" cy="50.0504191%" fx="50.0012821%" fy="50.0504191%" r="50.0010252%" id="radialGradient-1">
            <stop stop-color="#6ED798" offset="0%"></stop>
            <stop stop-color="#217844" offset="100%"></stop>
        </radialGradient>
        <radialGradient cx="50.0017976%" cy="49.9363054%" fx="50.0017976%" fy="49.9363054%" r="49.9976575%" id="radialGradient-2">
            <stop stop-color="#6ED798" offset="0%"></stop>
            <stop stop-color="#217844" offset="100%"></stop>
        </radialGradient>
    </defs>
    <g id="Page-1" stroke="none" stroke-width="1" fill="none" fill-rule="evenodd" sketch:type="MSPage">
        <g id="cat" sketch:type="MSLayerGroup" transform="translate(0.000000, 1.000000)">
            <g id="Group" sketch:type="MSShapeGroup">
                <path d="M94.3358408,79.3331119 C95.0825075,82.7295524 96.0490348,82.8397273 96.1009353,86.2728392 C96.409791,89.5193776 93.4748657,88.9480769 91.8536915,87.6354685 C90.9479801,86.9022028 90.0371741,83.443035 89.1785871,81.8348042 C87.7175721,79.0987692 84.5476617,68.4246783 83.0724776,66.916972 C83.0336318,68.5702378 83.9692736,74.4558252 83.3174925,79.5465455 C83.1754826,82.1096783 83.1490547,84.4955664 82.7239801,87.1891399 C82.8932139,89.506028 81.6149652,90.3821189 80.7071841,91.4845105 C80.0797612,92.2472098 77.2909851,92.299 76.3836816,89.7891049 C75.391204,87.0435804 76.3836816,84.1146993 76.5053134,80.5968252 C76.5702687,78.715972 79.0957214,67.7010629 76.7985672,68.3254406 C70.4203781,70.0616993 54.3022488,74.9835385 40.2832239,73.898035 C35.4884776,73.526979 32.0318408,73.2165594 28.583005,71.5898322 C27.2635224,70.9675455 26.5869055,71.2535175 24.966209,73.9224825 C22.9715423,77.2052098 22.8298507,80.7024965 22.6752637,82.7363077 C22.5205174,84.7702797 23.9675224,86.4833776 22.2479602,88.3603706 C20.5280796,90.2384895 18.3073433,90.9265594 17.166806,90.1912028 C16.025791,89.4566503 15.2584279,87.5674336 15.2566766,86.1116783 C15.2547662,84.7791259 15.0713632,79.1838531 15.5859104,77.8741399 C16.1093731,76.5422308 16.0990249,72.9913846 18.2200995,68.4246783 C19.0075224,66.7300769 21.2691741,63.7173986 21.4726368,63.4972098 C21.7545871,63.1912937 21.689791,60.1951818 20.6925373,60.1441958 C19.3151045,60.0740699 15.3275224,60.1848881 13.1672836,61.8566503 L9.7641393,64.491035 C5.89484577,66.7001608 5.42360199,66.2087972 3.40187065,64.3781259 C2.70248756,62.0538392 2.7800199,58.7611399 7.70913433,57.4464406 C11.8229652,56.3498392 13.51801,55.8066853 18.1075423,54.3063776 C20.5385871,53.5116713 20.1994826,51.7610979 20.5177313,51.5925385 C20.9230647,51.3789441 21.6870846,48.1452727 21.7558607,46.9885175 C21.911403,44.3715035 21.5934726,43.7736643 19.8630846,43.4259301 L18.3563781,43.1237133 C18.4676617,43.2544755 16.4777711,42.4747273 16.7909254,42.6161049 L14.4625672,42.0504336 C13.1820896,41.7388881 12.0144876,41.3031748 11.8681791,41.0818601 C11.3477413,40.8076294 9.86889552,40.2619021 9.86889552,40.2619021 C9.32712438,40.1533357 7.18726368,38.5779161 7.04,38.1796783 C6.97679602,38.3644825 6.04067662,37.6341119 5.21377114,37.1054336 L3.75912438,35.595958 C0.768,32.4919231 -0.508656716,27.7704895 0.274626866,22.7108112 C0.639840796,20.3514615 1.90296517,17.2197622 3.12342289,15.6461119 C3.72027861,14.8768182 3.87343284,14.1890699 3.99840796,11.7143986 C4.08167164,10.0645105 4.52059701,7.13611189 4.97385075,5.20588112 C5.7041194,2.09605594 5.92047761,1.60839161 6.87681592,0.919034965 C7.47016915,0.49072028 8.30774129,0.211342657 8.73806965,0.297713287 C9.84358209,0.51951049 12.1154229,2.85360839 13.8158806,5.51372727 C14.6128557,6.76103497 15.4703284,7.82225175 15.7215522,7.87291608 C15.9729353,7.9230979 16.8692537,7.66913287 17.7143085,7.30820979 C18.5588856,6.94744755 19.7446368,6.75138462 20.3492935,6.87297902 C20.9539502,6.99441259 22.1207562,6.83775524 22.9419303,6.52540559 C23.9799403,6.13038462 25.3490945,6.05173427 27.4295721,6.26725874 C29.0763781,6.43758741 31.4356219,6.65086014 32.6721592,6.74093007 L34.9204378,6.90498601 L36.9797413,4.42516783 C40.6755025,-0.0263776224 43.0645174,-1.10721678 44.5826866,0.985783217 C45.5480995,2.31688811 46.4749851,6.15081119 46.744199,9.9249021 C46.887005,11.9236503 47.1686368,13.0051329 47.6741095,13.4948881 C49.1488159,14.9226573 51.3682786,18.7512727 51.8425473,20.6858462 C53.2000796,26.2224126 51.2200597,33.1074545 47.1810547,36.891035 L45.8056915,38.1791958 C45.4005174,38.2575245 44.2357811,38.9541189 44.0574726,39.186049 C43.9461891,39.7491469 41.8034627,40.8866014 41.1145871,40.7484406 C40.9552239,40.9584965 40.8160796,41.0101259 39.3784677,41.6161678 C39.3456716,41.7824755 38.4261095,42.1704196 37.335403,42.4789091 C36.2440597,42.7875594 35.2433035,43.230993 35.1114826,43.4643706 C34.9600796,43.9647413 34.7282786,44.7774615 34.9616716,44.5601678 C35.1824876,44.3203566 35.5198408,44.2714615 35.7107264,44.4516014 C35.902408,44.6317413 37.3412935,44.6224126 38.9083383,44.4306923 C40.4753831,44.2394545 42.6735124,44.2309301 43.7927164,44.412035 C45.2647164,44.6502378 46.5572935,44.5325035 48.4593035,43.9862937 C51.3864279,43.1455874 54.415602,42.9855524 55.881393,43.5941678 C56.5737711,43.8815874 57.4060896,43.7784895 58.8172736,43.2305105 C61.3323781,42.2546993 62.2349055,42.1700979 64.9510846,42.6551888 C66.8618507,42.9966503 67.4704876,42.9168741 69.4046567,42.071021 C70.6367363,41.5322098 72.0009552,41.1490909 72.4363781,41.2188951 C75.7836418,41.7586713 76.2884776,41.4683566 79.6085174,37.0964266 C82.4128955,33.4016294 84.7028856,28.8070979 85.7248159,24.8215035 C86.8051741,20.6096084 86.6859303,18.6962657 85.2067662,16.5194685 C83.6733134,14.2619301 83.2748259,12.599014 83.7209154,10.3271608 C84.0378905,8.71893007 84.2951642,8.28997203 85.3831642,7.55541958 C88.9375522,5.1548951 94.2844179,9.57186014 95.3012537,15.7492098 C95.616796,17.6611049 95.5273234,18.5121049 94.6107861,22.3617902 C93.3341294,27.7198252 92.0781692,30.3706154 87.240597,37.9101119 C83.4138109,43.874993 82.3514428,44.9678951 83.2643184,48.6482168 C84.3061493,52.8461189 84.672796,53.4407413 85.3888955,55.2064336 C85.8096716,56.2446503 86.3383881,58.8996224 88.0192637,63.8468741 C89.2132935,67.3604056 89.7144677,67.1207552 91.695602,71.4936503" id="path3849" fill="#F79320"></path>
                <path d="M40.6992239,58.9528601 C39.5558209,55.6233287 37.8548856,47.4181189 38.0753831,46.2967483 C38.2361791,45.4811329 38.5749652,45.1327552 39.4564776,44.8755734 C40.6533731,44.5263916 43.9242189,45.0359301 44.1338905,45.6041748 C44.2752637,45.9858462 43.8404776,53.1386853 43.4470846,56.9065035 C42.9701095,61.473049 41.8507463,62.3063566 40.6992239,58.9528601 L40.6992239,58.9528601 L40.6992239,58.9528601 Z" id="path3847" fill="#262D28"></path>
                <path d="M50.6856119,59.9589091 C49.5239005,56.4762587 47.5464279,46.3591538 47.8546468,45.471965 C48.0463284,44.919965 48.752398,44.4971189 50.0938507,44.1305664 C52.1367562,43.5726154 55.5211144,43.690028 55.7565771,44.3272727 C56.0571542,45.1393497 53.9467463,59.5056643 53.3334925,60.8248671 C52.3949851,62.8445245 51.5575721,62.5704545 50.6856119,59.9589091 L50.6856119,59.9589091 Z" id="path3845" fill="#262D28"></path>
                <path d="M61.6022289,57.8515944 C60.4128159,55.397993 57.961393,46.1526364 58.1903284,44.9859091 C58.4667065,43.5808182 60.6535323,42.6937902 63.2022289,42.9530629 C65.3088159,43.1673007 65.2174328,42.8123287 64.6957214,48.7628951 C64.2072836,54.3396713 63.3190846,59.1765874 62.7698308,59.2549161 C62.5189254,59.2912657 61.9937114,58.6593287 61.6022289,57.8515944 L61.6022289,57.8515944 L61.6022289,57.8515944 Z" id="path3843" fill="#262D28"></path>
                <path d="M71.3275224,56.3115594 C70.177592,54.3028392 67.9727761,45.7328462 68.2467662,44.3382098 C68.6414328,42.334958 72.8958408,40.9099231 74.3434826,42.2955524 C74.9457512,42.8716783 74.8263483,46.8487483 74.024597,52.9551678 C73.5691144,56.423021 73.3758408,57.1527483 72.8321592,57.4503007 C72.288796,57.7473706 72.0429851,57.5611189 71.3275224,56.3115594 L71.3275224,56.3115594 L71.3275224,56.3115594 Z" id="path3841" fill="#262D28"></path>
                <path d="M23.7632637,46.2558951 C22.9508458,45.8581399 22.2716816,45.1026783 22.3535124,44.6864266 C22.3850348,44.5265524 23.2589055,44.4467762 24.295801,44.5091818 C25.3325373,44.5715874 27.6884378,44.5120769 29.5307463,44.3776154 C31.3730547,44.2428322 33.0050547,44.2494266 33.1577313,44.3927343 C34.8909851,46.0234825 26.6359403,47.6605035 23.7632637,46.2558951 L23.7632637,46.2558951 L23.7632637,46.2558951 Z" id="path3839" fill="#625145"></path>
                <path d="M3.59625871,28.8751329 C2.36290547,27.4695594 2.60537313,24.4888881 4.00350249,23.8669231 C6.06694527,22.949014 7.25954229,23.9881958 7.09890547,26.5651608 C6.93699502,29.1667343 4.98244776,30.4556993 3.59625871,28.8751329 L3.59625871,28.8751329 L3.59625871,28.8751329 Z" id="path3837" fill="url(#radialGradient-1)"></path>
                <path d="M24.8503085,30.7054825 C24.7097313,29.8815035 25.2766567,29.5363427 26.7723781,29.5345734 C27.7333333,29.5334476 28.0214925,29.6841538 28.1159005,30.2384056 C28.1940697,30.6974406 27.9630647,31.0725175 27.456,31.3103986 C26.4030249,31.8053007 24.9813333,31.4747762 24.8503085,30.7054825 L24.8503085,30.7054825 L24.8503085,30.7054825 Z" id="path3835" opacity="0.99" fill="#262D28"></path>
                <path d="M45.7197214,28.7363287 C45.1878209,27.7437902 45.5947463,24.5421259 46.2998607,24.1778252 C48.17799,23.2066783 49.7237015,24.1408322 49.8275025,26.3095874 C49.8787662,27.3864056 48.9173333,29.2011538 48.1326169,29.509 C47.3147861,29.8297133 46.0975124,29.4395175 45.7197214,28.7363287 L45.7197214,28.7363287 L45.7197214,28.7363287 Z" id="path3833" fill="url(#radialGradient-2)"></path>
                <path d="M18.1892139,15.216028 C17.1937114,13.0455035 16.240398,9.76197203 16.3878209,9.01181818 C16.6255124,7.80375524 20.6170746,6.73481818 21.2605771,7.70741259 C21.7112836,8.38824476 20.8753035,15.7442238 20.2617313,16.4992028 C19.478607,17.4624685 19.1167363,17.2384196 18.1892139,15.216028 L18.1892139,15.216028 L18.1892139,15.216028 Z" id="path3831" fill="#262D28"></path>
                <path d="M5.16712438,12.7169091 C4.65018905,10.907951 5.7638209,5.75530769 7.06897512,3.91691608 C8.67820896,1.65101399 9.77305473,2.27072727 13.5210348,7.56893007 C15.3585672,10.1663217 15.3431244,11.1807343 13.4473234,12.4611748 C12.1171741,13.3593007 11.0232836,13.3771538 9.98750249,12.5177902 C9.49890547,12.1123147 9.18431841,12.2250629 8.26841791,13.1344476 C6.840199,14.5527273 5.64569154,14.3918881 5.16712438,12.7169091 L5.16712438,12.7169091 L5.16712438,12.7169091 Z" id="path3829" fill="#625145"></path>
                <path d="M8.14774129,12.3318601 C9.14913433,11.1997133 10.0021493,10.9888531 10.3022488,11.7996434 C10.5845174,12.5642727 12.1090547,12.5602517 13.1731741,11.7920839 C14.6446965,10.7295804 14.3762786,9.68798601 11.7627861,6.31647552 C8.50626866,2.11567832 7.68254726,2.35870629 6.35860697,7.91248252 C5.47438806,11.6206294 5.53791045,13.1582517 6.58324378,13.367986 C6.88573134,13.4287832 7.58989055,12.9626713 8.14774129,12.3318601 L8.14774129,12.3318601 L8.14774129,12.3318601 Z" id="path3827" fill="#CFA9A9"></path>
                <path d="M23.9116418,14.3306084 C22.7090149,11.2251259 22.1597612,8.44486014 22.5923184,7.65144056 C23.1020896,6.71648252 25.1513632,6.23074825 26.6962786,6.67852448 C27.984398,7.05247552 28.0210149,7.11825874 27.9694328,8.98174126 C27.9406169,10.0368462 27.5346468,12.2554615 27.0675423,13.9124266 C26.3227861,16.555979 26.1322189,16.9074126 25.5121194,16.7829231 C25.0577512,16.6917273 24.487801,15.8188531 23.9116418,14.3306084 L23.9116418,14.3306084 L23.9116418,14.3306084 Z" id="path3825" fill="#262D28"></path>
                <path d="M29.688995,13.353993 C29.4524179,12.2321399 29.321393,10.5074615 29.3978109,9.52087413 C29.5621095,7.40776923 30.1228259,6.9414965 32.3295522,7.08158741 C34.3715025,7.21154545 34.5557015,7.77995105 33.5514428,10.8489231 C31.8167562,16.1476084 30.4641592,17.0251469 29.688995,13.353993 L29.688995,13.353993 Z" id="path3823" fill="#262D28"></path>
                <path d="M42.1498905,12.5838951 C41.1701493,11.4258531 41.152796,11.4199021 40.6115025,12.0865804 C39.5325771,13.4131818 35.9603582,11.7166503 35.8681791,9.83354545 C35.798607,8.43038462 40.454209,2.88931469 42.1368358,2.37221678 C43.7228259,1.8851958 45.3411343,5.38682517 45.7553831,10.203958 C46.087005,14.0594336 44.3612338,15.1981748 42.1498905,12.5838951 L42.1498905,12.5838951 L42.1498905,12.5838951 Z" id="path3821" fill="#625145"></path>
                <path d="M40.2897512,11.3735804 L41.2134527,10.5134126 L42.5063483,11.8638182 C44.2488358,13.6845175 45.0848159,13.5405664 45.1645771,11.4063916 C45.272995,8.48683916 43.7688358,3.08762937 42.7916418,2.89140559 C41.6678209,2.66574825 36.3599602,8.62982517 36.5728159,9.87954545 C36.6721592,10.4662867 38.3409353,11.9645035 39.1242189,12.1706993 C39.2576318,12.2057622 39.7820498,11.8469301 40.2899104,11.3739021 L40.2899104,11.3735804 L40.2897512,11.3735804 Z" id="path3819" fill="#CFA9A9"></path>
                <path d="M6.45890547,60.0745524 C4.01767164,59.2746993 2.54296517,63.912979 5.21297512,64.4054685 C6.70869652,64.8480979 9.62069652,64.9848112 9.66877612,62.8046364 C9.39621891,61.2718392 7.89142289,60.3027832 6.45890547,60.0745524 L6.45890547,60.0745524 L6.45890547,60.0745524 Z" id="path3817" fill="#DEADAD"></path>
                <path d="M33.0596617,31.656042 C33.182408,32.6553357 34.9917612,33.4791538 35.879005,33.6986993 C37.7811741,34.4903497 40.0259502,35.451042 41.5223085,36.9132308 C43.7226667,38.5163147 43.8154826,38.0934685 45.8263881,39.9374895 C45.9080597,40.6931119 48.8697313,42.5294126 49.015403,41.8902378 C48.9870647,41.2563706 45.8010746,38.7165594 45.3503682,38.3607832 C43.1293134,35.9174755 42.2425473,36.0767063 40.0772139,34.2437832 C38.2215323,32.8822797 35.3743284,31.9836713 33.0596617,31.656042 L33.0596617,31.656042 L33.0596617,31.656042 Z" id="path3887" fill="#B8B3AC"></path>
                <path d="M32.7033632,34.0234336 C32.5607164,35.0198322 34.0913035,36.2968951 34.889393,36.744993 C36.5170945,38.0151399 38.4321592,39.5402168 39.4937313,41.3491748 C40.8052537,42.6225385 42.0744279,44.2154895 42.5983682,43.5771189 C41.2164776,39.790965 40.3949851,40.6741329 38.7965771,38.3892517 C37.36199,36.5820629 34.8505473,34.9564615 32.7033632,34.0234336 L32.7033632,34.0234336 Z" id="path3887-1" fill="#B8B3AC"></path>
                <path d="M29.5495323,35.1686084 C29.1448358,36.0884476 30.2739104,37.7376923 30.9217114,38.3881259 C32.1466269,40.0576364 33.5791443,42.0509161 34.1147065,44.0832797 C35.2157612,46.0141538 35.3305473,46.7741189 36.1572935,46.0487343 C35.9699104,42.6054895 34.998607,43.2083147 34.2398408,41.0432587 C33.3452736,38.9097273 31.3650945,36.6558881 29.5495323,35.1686084 L29.5495323,35.1686084 Z" id="path3887-7" fill="#B8B3AC"></path>
                <path d="M19.2105075,30.8555455 C19.0320398,31.8458322 17.1789055,32.5646224 16.280995,32.7331818 C14.3377512,33.414014 12.0425075,34.2449091 10.4663881,35.6187972 C8.17942289,37.0932098 8.11000995,36.6655385 5.99896517,38.3913427 C5.87558209,39.1411748 2.81536318,40.8040909 2.70535323,40.158 C2.76951244,39.5268671 6.09273632,37.1741119 6.56286567,36.8443916 C8.91797015,34.5323287 9.79406965,34.7420629 12.0592239,33.0365245 C13.9882985,31.7837483 16.881194,31.0498392 19.2105075,30.8555455 L19.2105075,30.8555455 L19.2105075,30.8555455 Z" id="path3887-0" fill="#B8B3AC"></path>
                <path d="M19.4330746,33.2398252 C19.5195224,34.2423357 17.92,35.4296503 17.0977114,35.8317483 C15.4012338,37.0065175 13.4038607,38.419007 12.24199,40.1644336 C10.8607363,41.3602727 9.50447761,42.877951 9.01779104,42.2106294 C10.60999,38.5098811 11.3799005,39.4387273 13.1045572,37.2492238 C14.6383284,35.5267972 17.2371741,34.0478811 19.4330746,33.2398252 L19.4330746,33.2398252 Z" id="path3887-1-9" fill="#B8B3AC"></path>
                <path d="M22.5173333,34.5636923 C22.8702886,35.5052448 21.6501493,37.0869371 20.9668458,37.6994126 C19.6500697,39.2957413 18.1077015,41.2034545 17.4592637,43.2018811 C16.2512239,45.0664895 16.0942488,45.8188951 15.3095323,45.0468671 C15.6895522,41.6203497 16.6263085,42.2776993 17.5052736,40.1599301 C18.5179701,38.0812448 20.6215323,35.9446573 22.5173333,34.5636923 L22.5173333,34.5636923 Z" id="path3887-7-4" fill="#B8B3AC"></path>
                <path d="M5.13974129,24.5939161 C4.03932338,25.7632168 4.36075622,27.7082448 5.12668657,28.445049 C5.91952239,27.5985524 5.86650746,25.5066783 5.13974129,24.5939161 L5.13974129,24.5939161 Z" id="path3837-9" fill="#280B0B"></path>
                <path d="M47.5435622,24.7201748 C46.7344876,25.5124685 46.5962985,27.3944476 47.4910249,28.5811189 C48.3424478,27.5128252 48.4317612,25.6377622 47.5435622,24.7201748 L47.5435622,24.7201748 Z" id="path3833-2" fill="#280B0B"></path>
            </g>
        </g>
    </g>
</svg>