<?xml version="1.0" encoding="UTF-8" standalone="no"?>
<svg width="120px" height="160px" viewBox="0 0 120 160" version="1.1" xmlns="http://www.w3.org/2000/svg" xmlns:xlink="http://www.w3.org/1999/xlink" xmlns:sketch="http://www.bohemiancoding.com/sketch/ns">
    <title>dog</title>
    <description>Created with Sketch (http://www.bohemiancoding.com/sketch)</description>
    <defs></defs>
    <g id="Page-1" stroke="none" stroke-width="1" fill="none" fill-rule="evenodd" sketch:type="MSPage">
        <g id="dog" sketch:type="MSLayerGroup" transform="translate(2.000000, 2.000000)">
            <g id="layer1" sketch:type="MSShapeGroup">
                <path d="M57,29.9701412 C57.6095001,17.8634195 72.8470024,0.199514123 75.4881695,0.00104327595 C78.1293365,-0.197427571 69.7995019,27.9854327 67.5646683,29.9701412 C65.3298346,31.9548497 57.2031667,30.5655537 57,29.9701412 L57,29.9701412 Z" id="path3205" stroke="#000000" stroke-width="4" fill="#784421"></path>
                <path d="M75.4881695,0.00104327596 C75.2785908,0.0167920173 74.9793141,0.148987933 74.624711,0.373176119 C74.2371787,5.60093918 65.3168035,26.6766011 63.1838864,28.2087127 C61.9804894,29.0731367 59.4259973,28.9791297 57.1396771,28.5808456 C57.0770896,29.0493853 57.0228603,29.5160244 57,29.9701415 C57.2031667,30.5655541 65.3298346,31.9548492 67.5646683,29.9701415 C69.7995019,27.985433 78.1293365,-0.197427573 75.4881695,0.00104327596 L75.4881695,0.00104327596 Z" id="path3257" fill-opacity="0.31372549" fill="#000000"></path>
                <path d="M106.999999,75.5 C107.004289,93.1832167 97.5705807,109.525018 82.2534659,118.367865 C66.9363511,127.210712 48.0636489,127.210712 32.7465341,118.367865 C17.4294193,109.525018 7.99571124,93.1832167 8.00000146,75.5 C7.99571124,57.8167833 17.4294193,41.4749818 32.7465341,32.6321351 C48.0636489,23.7892883 66.9363511,23.7892883 82.2534659,32.6321351 C97.5705807,41.4749818 107.004289,57.8167833 106.999999,75.5 L106.999999,75.5 Z" id="path2383" stroke="#000000" stroke-width="3.9999998" fill="#A05A2C"></path>
                <path d="M98.9999989,67.5 C99.0033357,81.253613 91.6660072,93.963903 79.7526957,100.841673 C67.8393842,107.719442 53.1606158,107.719442 41.2473043,100.841673 C29.3339928,93.963903 21.9966643,81.253613 22.0000011,67.5 C21.9966643,53.746387 29.3339928,41.036097 41.2473043,34.1583273 C53.1606158,27.2805576 67.8393842,27.2805576 79.7526957,34.1583273 C91.6660072,41.036097 99.0033357,53.746387 98.9999989,67.5 L98.9999989,67.5 Z" id="path3276" fill-opacity="0.31372549" fill="#000000"></path>
                <path d="M101.057387,52 C102.341962,56.4019361 103.025721,61.0605915 103.025721,65.8755151 C103.025725,93.1940324 80.8536805,115.361092 53.5290164,115.361092 C34.7433051,115.361092 18.3857146,104.879499 10,89.4526099 C16.0271159,109.988998 35.0209841,125.000004 57.5032959,125 C84.8279599,125 107,102.83294 107,75.5144231 C107,67.0071475 104.844343,58.994872 101.057387,52 L101.057387,52 Z" id="path3339" fill-opacity="0.31372549" fill="#000000"></path>
                <path d="M91,123.662257 C91,132.30782 84.056,131.998622 75.499998,131.998622 C66.944,131.998622 60,132.30782 60,123.662257 C60,115.01669 66.944,108 75.499998,108 C84.056,108 91,115.01669 91,123.662257 L91,123.662257 Z" id="path3235" stroke="#000000" stroke-width="4" fill="#A05A2C"></path>
                <path d="M55,123.662256 C55,132.307824 48.0560009,131.998622 39.5,131.998622 C34.7424588,131.998622 30.4833278,132.094224 27.6393071,130.692731 C25.3686186,129.57377 24,127.500479 24,123.662256 C24,115.016691 30.9439991,108 39.5,108 C48.0560009,108 55,115.016691 55,123.662256 L55,123.662256 Z" id="path3238" stroke="#000000" stroke-width="4" fill="#A05A2C"></path>
                <g id="g3263" transform="translate(37.500000, 124.500000) scale(-1, 1) translate(-37.500000, -124.500000) translate(29.000000, 118.000000)" stroke="#000000" stroke-width="4">
                    <path d="M0.741695684,12 C-1.06640356,7.38461444 1,2 1,2" id="path3265"></path>
                    <path d="M8.25830078,13 C10.0664062,5.74999786 8,0 8,0" id="path3267"></path>
                    <path d="M15,12 C19.1257126,6.4999994 15.5893902,2 15.5893902,2" id="path3269"></path>
                </g>
                <path d="M96.9999989,62.5 C97.0033357,76.253613 89.6660072,88.963903 77.7526957,95.8416727 C65.8393842,102.719442 51.1606158,102.719442 39.2473043,95.8416727 C27.3339928,88.963903 19.9966643,76.253613 20.0000011,62.5 C19.9966643,48.746387 27.3339928,36.036097 39.2473043,29.1583273 C51.1606158,22.2805576 65.8393842,22.2805576 77.7526957,29.1583273 C89.6660072,36.036097 97.0033357,48.746387 96.9999989,62.5 L96.9999989,62.5 Z" id="path2418" stroke="#000000" stroke-width="3.99999973" fill="#A05A2C"></path>
                <path d="M92.6796551,46 C93.2867863,48.7190092 93.6123363,51.5444177 93.6123363,54.4476987 C93.6123363,75.5971013 76.5990144,92.7698745 55.6459957,92.7698745 C40.2152373,92.7698745 26.9333014,83.4547856 21,70.1004184 C24.8023776,87.2065098 39.9442653,100 58.0336594,100 C78.9866782,100 96,82.8272268 96,61.6778243 C96,56.0898049 94.8131043,50.7885684 92.6796551,46 L92.6796551,46 Z" id="path3251" fill-opacity="0.31372549" fill="#000000"></path>
                <path d="M55.9999997,55 C56.0009531,58.9296037 53.9045735,62.5611151 50.5007702,64.5261922 C47.0969669,66.4912693 42.9030331,66.4912693 39.4992298,64.5261922 C36.0954265,62.5611151 33.9990469,58.9296037 34.0000003,55 C33.9990469,51.0703963 36.0954265,47.4388849 39.4992298,45.4738078 C42.9030331,43.5087307 47.0969669,43.5087307 50.5007702,45.4738078 C53.9045735,47.4388849 56.0009531,51.0703963 55.9999997,55 L55.9999997,55 Z" id="path2387" stroke="#000000" stroke-width="4.00000045" fill="#FFFFFF"></path>
                <path d="M81.9999997,55 C82.0009531,58.9296037 79.9045735,62.5611151 76.5007702,64.5261922 C73.0969669,66.4912693 68.9030331,66.4912693 65.4992298,64.5261922 C62.0954265,62.5611151 59.9990469,58.9296037 60.0000003,55 C59.9990469,51.0703963 62.0954265,47.4388849 65.4992298,45.4738078 C68.9030331,43.5087307 73.0969669,43.5087307 76.5007702,45.4738078 C79.9045735,47.4388849 82.0009531,51.0703963 81.9999997,55 L81.9999997,55 Z" id="path2391" stroke="#000000" stroke-width="4.00000045" fill="#FFFFFF"></path>
                <path d="M51.9999999,56.5 C52.0003032,57.7503285 51.3332734,58.9058094 50.2502451,59.5310612 C49.1672167,60.1563129 47.8327833,60.1563129 46.7497549,59.5310612 C45.6667266,58.9058094 44.9996968,57.7503285 45.0000001,56.5 C44.9996968,55.2496715 45.6667266,54.0941906 46.7497549,53.4689388 C47.8327833,52.8436871 49.1672167,52.8436871 50.2502451,53.4689388 C51.3332734,54.0941906 52.0003032,55.2496715 51.9999999,56.5 L51.9999999,56.5 Z" id="path2393" fill="#000000"></path>
                <path d="M70.9999999,56.5 C71.0003032,57.7503285 70.3332734,58.9058094 69.2502451,59.5310612 C68.1672167,60.1563129 66.8327833,60.1563129 65.7497549,59.5310612 C64.6667266,58.9058094 63.9996968,57.7503285 64.0000001,56.5 C63.9996968,55.2496715 64.6667266,54.0941906 65.7497549,53.4689388 C66.8327833,52.8436871 68.1672167,52.8436871 69.2502451,53.4689388 C70.3332734,54.0941906 71.0003032,55.2496715 70.9999999,56.5 L70.9999999,56.5 Z" id="path2395" fill="#000000"></path>
                <path d="M68,80.9545422 C68,86.4996337 61.9815349,91 58,91 C53.710766,91 48,86.4996337 48,80.9545422 C48,75.4094547 52.4799972,74 58,74 C63.5199989,74 68,75.4094547 68,80.9545422 L68,80.9545422 Z" id="path2397" fill="#000000"></path>
                <path d="M83.8468034,110 C85.6698577,112.647653 86.7539204,115.911206 86.7539204,119.435868 C86.7539242,124.52951 84.5015103,129.061656 81,132 C86.8214717,131.766054 91,130.490772 91,123.572838 C91,117.83961 88.1409911,112.810717 83.8468034,110 L83.8468034,110 Z" id="path3327" fill-opacity="0.31372549" fill="#000000"></path>
                <g id="g2410" transform="translate(70.000000, 118.000000)" stroke="#000000" stroke-width="4">
                    <path d="M0.741695684,12 C-1.06640356,7.38461444 1,2 1,2" id="path2412"></path>
                    <path d="M8.25830078,13 C10.0664062,5.74999786 8,0 8,0" id="path2414"></path>
                    <path d="M15,12 C19.1257126,6.4999994 15.5893902,2 15.5893902,2" id="path2416"></path>
                </g>
                <path d="M47.8468034,110 C49.6698577,112.647653 50.7539204,115.911206 50.7539204,119.435868 C50.7539242,124.52951 48.5015103,129.061656 45,132 C50.8214717,131.766054 55,130.490772 55,123.572838 C55,117.83961 52.1409911,112.810717 47.8468034,110 L47.8468034,110 Z" id="path3332" fill-opacity="0.31372549" fill="#000000"></path>
                <path d="M62.0922551,115 C60.7642209,117.283198 60,119.939088 60,122.763608 C60,129.732979 64.6316024,130.830929 71,131 C64.6737061,128.381064 61.4564501,122.158421 62.0922551,115 L62.0922551,115 Z" id="path3349" fill-opacity="0.31372549" fill="#000000"></path>
                <path d="M30.7558301,34.0653155 C8.8786772,32.5153082 -2.51772541,58.9918939 0.469863955,66.7937626 C2.89871834,73.1365378 16.3191649,79.5340181 15.7778456,73.7167408 C14.0211829,54.8387111 37.580723,34.5488633 30.7558301,34.0653155 L30.7558301,34.0653155 Z" id="path3201" stroke="#000000" stroke-width="4" fill="#784421"></path>
                <path d="M85.2441699,34.0653155 C107.121323,32.5153082 118.517725,58.9918939 115.530136,66.7937626 C113.101282,73.1365378 99.6808351,79.5340181 100.222154,73.7167408 C101.978817,54.8387111 78.419277,34.5488633 85.2441699,34.0653155 L85.2441699,34.0653155 Z" id="path3203" stroke="#000000" stroke-width="4" fill="#784421"></path>
                <path d="M87,34 C107.458905,38.1401152 112.990144,65.1292398 108.604914,72.016158 C107.63297,73.5425792 105.88964,74.9073385 103.89454,76 C107.9481,75.0625138 113.970461,71.010587 115.526023,66.9640934 C118.446456,59.3671474 107.741328,34.1519484 87,34 L87,34 Z" id="path3262" fill-opacity="0.31372549" fill="#000000"></path>
                <path d="M43.8976178,148.353692 L73.1383403,142.0091 C73.1383403,142.0091 78.1308111,150.041811 83.9156178,145.464891 C89.7004246,140.887966 81.6087586,136.342011 81.6087586,136.342011 C81.6087586,136.342011 89.7328047,131.899767 81.7471114,127.913149 C73.7614141,123.926531 71.0964128,134.284565 71.0964128,134.284565 L42.7603763,139.298155 C42.7603763,139.298155 35.3899089,129.399681 29.9760066,135.934279 C24.5621042,142.468877 31.9894839,146.561661 31.9894839,146.561661 C31.9894839,146.561661 26.031493,151.750997 33.6320528,155.231365 C41.2326165,158.711725 43.4982632,149.298862 43.8976178,148.353692 L43.8976178,148.353692 Z" id="path3288" stroke="#000000" stroke-width="4" fill="#E3DBDB"></path>
                <path d="M39,135 C39.933946,135.692033 40.8118167,136.400903 41.6665234,137 C41.7779373,136.984738 41.8885861,136.966067 42,136.950805 C41.1782943,136.312103 40.1589178,135.603869 39,135 L39,135 Z M82.2723485,128 C82.3992566,128.194425 82.5142954,128.403577 82.6192313,128.611363 C83.3862076,131.150953 80.1850484,133.232213 79,134.645146 C79.4291154,135.577336 80.4820405,136.195583 81.3285694,137 C82.057235,136.533875 88.5879308,131.863035 82.2723485,128 L82.2723485,128 Z M29,143 C29.4241702,143.793294 30.0759651,144.467563 30.7438523,145 C31.6305111,144.196322 30.0104344,143.646754 29,143 L29,143 Z M82.3226489,137 C82.4996076,137.204331 82.6516197,137.433011 82.7703617,137.675589 C85.1886457,140.745293 81.1769073,144.516909 78.0109338,144.324279 C74.9028845,144.256963 73.6665496,141.27209 71.7100928,139.394429 C61.9884099,141.485708 51.5707221,143.708263 41.8490392,145.799541 C40.8564319,147.412939 40.5089103,149.51536 39.1842744,151.001745 C37.2004825,154.123563 32.8001498,153.801062 30.1463896,151.667753 C30.093615,151.639545 30.0504102,151.598825 30,151.568693 C30.2711588,152.814153 31.3018413,154.117331 33.7732286,155.239877 C41.3531924,158.682823 43.610732,149.367293 44.0090044,148.432284 L73.870058,142.027172 C73.870054,142.027176 78.1536726,150.105685 83.9228077,145.577966 C88.610225,141.899188 84.1555868,138.242621 82.3226489,137 L82.3226489,137 Z" id="path3300" fill-opacity="0.31372549" fill="#000000"></path>
            </g>
        </g>
    </g>
</svg>