<?xml version="1.0" encoding="UTF-8" standalone="no"?>
<svg width="200px" height="171px" viewBox="0 0 200 171" version="1.1" xmlns="http://www.w3.org/2000/svg" xmlns:xlink="http://www.w3.org/1999/xlink" xmlns:sketch="http://www.bohemiancoding.com/sketch/ns">
    <title>family</title>
    <description>Created with Sketch (http://www.bohemiancoding.com/sketch)</description>
    <defs></defs>
    <g id="Page-1" stroke="none" stroke-width="1" fill="none" fill-rule="evenodd" sketch:type="MSPage">
        <g id="family" sketch:type="MSLayerGroup" transform="translate(8.000000, 7.000000)">
            <path d="M15.8583162,149.27387 C15.8583162,153.554435 12.9821355,157.023832 9.43531828,157.023832 C5.88726899,157.023832 3.0110883,153.554435 3.0110883,149.27387 C3.0110883,144.994198 5.88726899,141.52542 9.43531828,141.52542 C12.9821355,141.52542 15.8583162,144.994198 15.8583162,149.27387" id="Fill-2" fill="#736F83" sketch:type="MSShapeGroup"></path>
            <path d="M13.1578371,148.695328 C13.1578371,150.815618 11.787885,152.536885 10.0962355,152.536885 C8.40472279,152.536885 7.03463381,150.815618 7.03463381,148.695328 C7.03463381,146.572702 8.40472279,144.852053 10.0962355,144.852053 C11.787885,144.852053 13.1578371,146.572702 13.1578371,148.695328" id="Fill-3" fill="#BFBFBE" sketch:type="MSShapeGroup"></path>
            <path d="M58.5086927,78.8149313 L9.49650924,148.128466 L11.0612594,149.688901 L60.0734428,80.3755038 L58.5086927,78.8149313" id="Fill-4" fill="#1A1918" sketch:type="MSShapeGroup"></path>
            <path d="M15.2300479,142.588794 L12.5409309,146.312046 L25.3588638,150.320344 L28.4520876,145.754527 L15.2300479,142.588794" id="Fill-5" fill="#0094CC" sketch:type="MSShapeGroup"></path>
            <path d="M124.375086,155.480916 C124.169747,155.618321 123.759069,155.549618 123.485284,155.961832 C123.485284,156.030534 123.074606,156.030534 123.074606,155.961832 C122.61102,154.89145 121.864339,153.947893 120.877892,153.449939 C120.271253,153.983206 118.974743,154.742229 118.351814,155.557244 C115.369678,160.657015 136.558522,154.388412 136.558522,149.099229 C136.614168,148.484962 136.134976,147.497641 135.554757,146.732504 C134.860507,147.975603 134.532238,149.453733 134.231348,150.877863 C131.288159,153.076336 127.865845,154.244275 124.375086,155.480916" id="Fill-6" fill="#2F3228" sketch:type="MSShapeGroup"></path>
            <path d="M129.746817,146.575656 L126.976044,147.175565 C124.869199,150.87642 122.903628,151.66945 120.877892,153.449939 C121.466804,153.747214 121.969473,154.204015 122.378234,154.751092 C122.608487,154.55371 122.840383,154.361206 123.074606,154.175573 C125.71937,152.062702 128.491307,149.607901 129.746817,146.575656" id="Fill-7" fill="#99804A" sketch:type="MSShapeGroup"></path>
            <path d="M134.112594,145.63045 L129.746817,146.575656 C128.491307,149.607901 125.71937,152.062702 123.074606,154.175573 C122.840383,154.361206 122.608487,154.55371 122.378234,154.751092 C122.654141,155.120366 122.887817,155.53045 123.074606,155.961832 C123.074606,156.030534 123.485284,156.030534 123.485284,155.961832 C123.759069,155.549618 124.169747,155.618321 124.375086,155.480916 C127.865845,154.244275 131.288159,153.076336 134.231348,150.877863 C134.532238,149.453733 134.860507,147.975603 135.554757,146.732504 C135.057153,146.07626 134.485421,145.583321 134.112594,145.63045" id="Fill-8" fill="#595D49" sketch:type="MSShapeGroup"></path>
            <path d="M128.13963,156.099237 C127.4154,155.826626 127.170363,155.103328 127.225873,154.386282 C127.044832,154.440214 126.86345,154.493183 126.680903,154.541687 C126.145038,155.088626 126.070226,155.695061 126.964682,156.370336 C127.795825,157.108542 128.82553,157.518763 129.972964,157.680557 C129.73306,157.266626 129.568994,156.810099 129.494935,156.342374 C129.043121,156.321557 128.591444,156.250382 128.13963,156.099237" id="Fill-9" fill="#008181" sketch:type="MSShapeGroup"></path>
            <path d="M128.13963,156.099237 C128.591444,156.250382 129.043121,156.321557 129.494935,156.342374 C129.362012,155.503656 129.519713,154.629214 130.056126,153.900763 C129.055578,153.809458 128.145517,154.112229 127.225873,154.386282 C127.170363,155.103328 127.4154,155.826626 128.13963,156.099237" id="Fill-10" fill="#F4BC8A" sketch:type="MSShapeGroup"></path>
            <path d="M145.462834,59.6798321 L139.533333,54.7195954 C140.966598,69.4312977 128.123751,84.9279237 123.730869,98.3364809 C132.792129,99.165374 129.678166,97.5934656 133.787474,87.9236183 C137.503696,79.1766489 146.434634,69.5032977 145.462834,59.6798321" id="Fill-11" fill="#3E3B2F" sketch:type="MSShapeGroup"></path>
            <path d="M125.075359,94.7691832 C120.854894,97.2964656 121.090144,102.847542 126.783915,103.293901 C132.524846,103.744176 133.141615,97.144771 131.112936,95.7387786 C129.58768,95.4905573 126.580835,94.433916 125.075359,94.7691832" id="Fill-12" fill="#F4BC8A" sketch:type="MSShapeGroup"></path>
            <path d="M141.318891,67.9716489 C139.782752,67.577916 137.164408,66.0526565 136.0859,67.1729847 C136.229158,68.8118779 135.5987,71.8024198 135.451472,72.7097023 C136.650719,73.2016794 136.743669,73.5222443 140.43655,74.082374 C140.600548,72.9892519 141.522382,69.0689618 141.318891,67.9716489" id="Fill-13" fill="#1A1918" sketch:type="MSShapeGroup"></path>
            <path d="M83.3073238,151.839695 C79.2689938,152.664122 75.4360027,154.10687 71.2607803,154.519084 C71.0554415,154.587786 70.7132101,154.519084 70.4394251,154.656489 C70.2340862,154.793893 69.9603012,154.793893 69.7549624,154.656489 C68.4711157,153.701939 67.3852156,152.482817 66.0158795,151.85 C65.4117728,152.380313 64.85859,152.982969 64.3735797,153.689779 C62.8416153,156.763725 75.695551,155.183435 84.6669405,152.375916 C86.1568104,151.909771 85.8531828,150.434252 85.1624914,148.923214 C84.3131417,149.756092 83.6204654,150.696626 83.3073238,151.839695" id="Fill-14" fill="#2F3228" sketch:type="MSShapeGroup"></path>
            <path d="M79.4001369,145.760916 L75.4179329,146.425405 C72.2586585,148.600656 68.6517454,149.536107 66.0158795,151.85 C66.6476386,152.141985 67.2188912,152.559282 67.7772758,153.017321 C69.1439425,152.344588 70.5193018,151.697412 71.945243,151.083969 C74.6430527,149.868214 77.6498289,148.295893 79.4001369,145.760916" id="Fill-15" fill="#99804A" sketch:type="MSShapeGroup"></path>
            <path d="M83.3493498,145.102061 L79.4001369,145.760916 C77.6498289,148.295893 74.6430527,149.868214 71.945243,151.083969 C70.5193018,151.697412 69.1439425,152.344588 67.7772758,153.017321 C68.4291581,153.551962 69.0634497,154.142321 69.7549624,154.656489 C69.9603012,154.793893 70.2340862,154.793893 70.4394251,154.656489 C70.7132101,154.519084 71.0554415,154.587786 71.2607803,154.519084 C75.4360027,154.10687 79.2689938,152.664122 83.3073238,151.839695 C83.6204654,150.696626 84.3131417,149.756092 85.1624914,148.923214 C84.4015743,147.25842 83.1707734,145.550618 83.3493498,145.102061" id="Fill-16" fill="#595D49" sketch:type="MSShapeGroup"></path>
            <path d="M117.21102,121.078656 C113.836893,112.146397 113.022382,102.641023 112.610609,93.1612748 C113.202464,90.8978779 113.181656,88.2573053 112.338193,84.9243511 L103.443806,89.8837634 C97.1147844,94.2985038 93.1682409,103.844962 89.2026694,110.449176 C85.1510609,117.197115 72.7654346,148.111153 72.7654346,148.111153 C72.7654346,148.111153 79.8581109,145.166229 85.4792608,147.333718 C85.2433265,137.553397 88.359206,129.638275 93.026694,121.206099 C96.8855578,114.234534 98.7178645,109.003679 102.627584,105.406977 C106.172074,118.172481 116.235044,138.318053 125.470226,147.587779 C127.934292,150.061061 136.147844,144.702282 136.147844,144.702282 C136.147844,144.702282 119.52601,127.212191 117.21102,121.078656" id="Fill-17" fill="#C6B370" sketch:type="MSShapeGroup"></path>
            <path d="M53.9537303,150.888511 C53.9537303,155.168183 51.078371,158.636962 47.5306639,158.636962 C43.9839151,158.636962 41.1072553,155.168183 41.1072553,150.888511 C41.1072553,146.608221 43.9839151,143.138275 47.5306639,143.138275 C51.078371,143.138275 53.9537303,146.608221 53.9537303,150.888511" id="Fill-18" fill="#736F83" sketch:type="MSShapeGroup"></path>
            <path d="M51.2542094,150.308183 C51.2542094,152.42971 49.8828884,154.151183 48.1913758,154.151183 C46.5011636,154.151183 45.1298426,152.42971 45.1298426,150.308183 C45.1298426,148.185832 46.5011636,146.465183 48.1913758,146.465183 C49.8828884,146.465183 51.2542094,148.185832 51.2542094,150.308183" id="Fill-19" fill="#BFBFBE" sketch:type="MSShapeGroup"></path>
            <path d="M61.9264203,147.270992 L56.9845996,113.875221 L55.0295688,114.166725 L59.9714579,147.562496 L61.9264203,147.270992" id="Fill-20" fill="#1A1918" sketch:type="MSShapeGroup"></path>
            <path d="M49.1702259,150.171397 L44.1386721,113.884221 L42.1810404,114.157794 L47.2125941,150.444969 L49.1702259,150.171397" id="Fill-21" fill="#1A1918" sketch:type="MSShapeGroup"></path>
            <path d="M68.9125941,83.7792901 L23.7985626,152.140267 L25.3300479,153.394084 L70.3867899,85.5549008 L68.9125941,83.7792901" id="Fill-22" fill="#1A1918" sketch:type="MSShapeGroup"></path>
            <path d="M56.2474333,146.593863 L27.4502396,147.20916 L27.4951403,149.192389 L56.2924025,148.577092 L56.2474333,146.593863" id="Fill-23" fill="#1A1918" sketch:type="MSShapeGroup"></path>
            <path d="M67.0731691,150.888511 C67.0731691,155.168183 64.1969884,158.636962 60.6501027,158.636962 C57.1021218,158.636962 54.226694,155.168183 54.226694,150.888511 C54.226694,146.608221 57.1021218,143.138275 60.6501027,143.138275 C64.1969884,143.138275 67.0731691,146.608221 67.0731691,150.888511" id="Fill-24" fill="#736F83" sketch:type="MSShapeGroup"></path>
            <path d="M64.3735797,150.308183 C64.3735797,152.42971 63.0022587,154.151183 61.3097194,154.151183 C59.6194387,154.151183 58.2493498,152.42971 58.2493498,150.308183 C58.2493498,148.185832 59.6194387,146.465183 61.3097194,146.465183 C63.0022587,146.465183 64.3735797,148.185832 64.3735797,150.308183" id="Fill-25" fill="#BFBFBE" sketch:type="MSShapeGroup"></path>
            <path d="M32.4711841,153.347779 C32.4711841,157.628344 29.5950034,161.097122 26.0468857,161.097122 C22.4989733,161.097122 19.6237509,157.628344 19.6237509,153.347779 C19.6237509,149.067489 22.4989733,145.59871 26.0468857,145.59871 C29.5950034,145.59871 32.4711841,149.067489 32.4711841,153.347779" id="Fill-26" fill="#736F83" sketch:type="MSShapeGroup"></path>
            <path d="M29.7693361,152.767176 C29.7693361,154.888908 28.3983573,156.609008 26.7078029,156.609008 C25.0164271,156.609008 23.6451745,154.888908 23.6451745,152.767176 C23.6451745,150.645718 25.0164271,148.925344 26.7078029,148.925344 C28.3983573,148.925344 29.7693361,150.645718 29.7693361,152.767176" id="Fill-27" fill="#BFBFBE" sketch:type="MSShapeGroup"></path>
            <path d="M35.5134839,84.3305573 C30.1162902,88.8414122 29.9243669,91.9535573 32.3903491,94.4319924 C27.1492129,99.8869542 23.9969199,106.533282 20.3639973,113.15426 C18.4798084,116.591985 15.55154,120.069969 14.4968515,123.928565 C12.5365503,124.495771 11.1610541,126.856725 10.5032854,129.497641 C8.06899384,135.433725 28.3171116,145.536328 34.8518138,140.265008 C34.8518138,140.265008 44.7586585,148.407191 52.055373,140.471733 C54.6436687,137.656863 53.9658453,131.051 53.5698152,125.336481 C58.1471595,120.334336 62.6004107,114.867695 66.6161533,109.696198 C84.6733744,91.7597481 49.9577687,72.2580534 35.5134839,84.3305573" id="Fill-28" fill="#0094CC" sketch:type="MSShapeGroup"></path>
            <path d="M174.501574,34.619916 C174.527721,31.7117481 184.068378,1.94215267 148.086379,6.6441374 C131.104107,8.86329008 124.592882,15.7500076 125.413552,24.6799313 C134.215332,43.520229 116.540931,57.3985725 154.650513,61.9184275 C177.593498,64.6394504 174.477207,37.3442366 174.501574,34.619916" id="Fill-29" fill="#977546" sketch:type="MSShapeGroup"></path>
            <path d="M60.8214237,104.848771 C56.9606434,106.184481 53.9095825,110.475763 51.06564,113.691031 L32.2901437,113.691031 C26.8000684,110.111366 23.1449008,99.533 16.5353867,99.7740076 C9.7522245,103.401695 24.2793977,113.976832 30.92423,117.418679 C27.7704997,119.678779 27.7704997,119.678779 25.5531143,122.519687 C28.2675565,127.383878 32.372553,132.265382 37.2852841,135.988015 C41.7607118,133.454687 45.7053388,130.091366 47.9569473,127.164718 C52.391718,121.40245 61.5936345,112.547962 60.8214237,104.848771" id="Fill-30" fill="#DF6A43" sketch:type="MSShapeGroup"></path>
            <path d="M16.4775496,102.778977 L19.970705,101.130878 C23.0334702,84.8397786 -0.983504449,104.911427 16.4775496,102.778977" id="Fill-31" fill="#F4BC8A" sketch:type="MSShapeGroup"></path>
            <path d="M130.870431,153.75429 C135.765024,154.845626 141.099658,153.228649 144.298426,149.658878 C145.009651,146.346878 146.365845,138.318053 146.683094,137.955718 L143.387611,137.294458 C141.890007,137.656725 140.838056,148.916962 139.29473,149.338382 C136.58987,150.077893 133.345311,150.884321 130.815743,152.282069 C130.766667,153.093031 130.490212,153.75429 130.870431,153.75429" id="Fill-32" fill="#F4BC8A" sketch:type="MSShapeGroup"></path>
            <path d="M130.870431,153.75429 C130.490212,153.75429 130.766667,153.093031 130.815743,152.282069 C129.696783,152.901626 127.56345,153.641 126.680903,154.541687 C127.790828,154.246885 128.85859,153.791458 130.056126,153.900763 C129.220602,155.03545 129.302738,156.524229 129.972964,157.680557 C133.939767,158.240275 139.317796,155.823534 142.797536,153.658656 C143.377207,153.299687 143.875291,151.632763 144.298426,149.658878 C141.099658,153.228649 135.765024,154.845626 130.870431,153.75429" id="Fill-33" fill="#008181" sketch:type="MSShapeGroup"></path>
            <path d="M166.280903,136.916046 C163.412115,137.493626 162.507734,136.809008 163.398426,138.858534 C164.358522,141.074321 166.383847,143.091145 165.200821,145.369382 C164.113005,147.466794 157.110678,149.982534 157.692334,152.403122 C158.733881,156.745313 167.503696,150.945466 168.995756,149.164359 C171.186174,146.551542 166.280903,136.916046 166.280903,136.916046" id="Fill-34" fill="#F4BC8A" sketch:type="MSShapeGroup"></path>
            <path d="M156.022108,155.332863 C156.278919,155.505992 156.569541,155.591733 156.871526,155.621412 C156.950445,154.804198 157.023888,153.98671 157.191992,153.197733 C156.403901,153.005641 155.601095,152.931649 154.80705,152.937145 C154.556537,153.88084 155.276181,154.891863 156.022108,155.332863" id="Fill-35" fill="#F4BC8A" sketch:type="MSShapeGroup"></path>
            <path d="M156.022108,155.332863 C155.276181,154.891863 154.556537,153.88084 154.80705,152.937145 C154.729227,152.937695 154.651061,152.938107 154.573374,152.940305 C154.379808,153.394977 154.363655,153.920618 154.608077,154.542718 C154.994114,155.526053 155.79822,156.071756 156.800068,156.324992 C156.825873,156.090992 156.848871,155.856237 156.871526,155.621412 C156.569541,155.591733 156.278919,155.505992 156.022108,155.332863" id="Fill-36" fill="#008181" sketch:type="MSShapeGroup"></path>
            <path d="M169.435934,145.864656 C169.346749,149.716931 161.276591,155.837137 158.820876,151.490344 L160.082888,149.339481 C158.889322,150.456443 155.339562,151.140168 154.573374,152.940305 C155.443121,152.917084 156.326489,152.986748 157.191992,153.197733 C156.975633,154.21329 156.916222,155.276183 156.800068,156.324992 C159.308008,156.959046 163.057495,155.758542 164.60924,154.986947 C167.712731,153.444786 170.561054,149.533771 169.435934,145.864656" id="Fill-37" fill="#008181" sketch:type="MSShapeGroup"></path>
            <path d="M149.351266,95.5137099 C148.46872,102.725527 141.887064,125.293748 140.955921,140.454695 C143.124298,140.581382 145.255099,140.88058 147.3987,141.170573 C151.544011,126.996809 154.364819,106.717885 160.376454,98.5333817 L149.351266,95.5137099" id="Fill-38" fill="#1A1918" sketch:type="MSShapeGroup"></path>
            <path d="M153.861123,97.0235802 L143.336413,99.5383588 C146.22334,106.171565 155.455099,127.069977 158.179603,133.95587 C158.798836,135.52242 159.79384,137.660023 160.974264,139.666473 C162.992266,139.06526 164.995756,138.456557 166.966804,137.788153 C158.659548,112.792817 155.21013,99.2213664 153.861123,97.0235802" id="Fill-39" fill="#1A1918" sketch:type="MSShapeGroup"></path>
            <path d="M149.235866,12.1342061 L145.365503,12.3099466 C119.570979,14.9206336 116.86078,47.962313 143.319165,53.7281527 C152.347707,55.6949618 166.648665,48.9486718 169.066324,41.2634275 C163.77666,34.6061069 148.86386,18.5647405 149.235866,12.1342061" id="Fill-40" fill="#F4BC8A" sketch:type="MSShapeGroup"></path>
            <path d="M145.757084,43.9689237 C145.606229,45.0526336 144.019918,48.6777786 143.835387,49.1400763 C142.418412,48.4854122 141.579055,47.2114656 141.007734,44.8992901 L139.839562,45.1901756 C140.333402,47.1894809 141.252019,49.5998321 143.993429,50.4993511 C144.303491,50.6010992 144.637645,50.436626 144.747502,50.1285649 C144.959274,49.5334656 146.775359,45.3854962 146.949144,44.136145 L145.757084,43.9689237" id="Fill-41" fill="#975E30" sketch:type="MSShapeGroup"></path>
            <path d="M165.759617,79.135771 C165.824778,77.3317863 165.90835,75.529313 166.013415,73.7273893 C156.500684,76.469229 147.183778,78.1389695 139.843943,72.2557176 C139.951266,74.480916 140.348323,76.0750153 140.342368,76.3823206 C148.075702,81.8644885 156.55551,82.2004427 165.759617,79.135771" id="Fill-42" fill="#1A1918" sketch:type="MSShapeGroup"></path>
            <path d="M164.148939,43.1005267 C164.148939,46.0879771 161.663381,48.5098015 158.595825,48.5098015 C155.5295,48.5098015 153.044011,46.0879771 153.044011,43.1005267 C153.044011,40.1135573 155.5295,37.691458 158.595825,37.691458 C161.663381,37.691458 164.148939,40.1135573 164.148939,43.1005267" id="Fill-43" fill="#ED9B6A" sketch:type="MSShapeGroup"></path>
            <path d="M138.767693,24.175313 C137.046338,22.3105267 132.871253,19.9511527 129.509446,20.3716794 C127.945791,20.5672061 126.741821,21.3652519 126.027721,22.6793893 L127.0846,23.2579313 C127.612799,22.2858626 128.478713,21.7181756 129.658522,21.5706031 C132.581451,21.2050382 136.37796,23.3642824 137.884531,24.9966489 L138.767693,24.175313" id="Fill-44" fill="#997456" sketch:type="MSShapeGroup"></path>
            <path d="M131.024025,26.3744046 C129.659411,26.3750229 128.398357,27.5420687 127.650034,29.4963053 C126.717796,31.9309084 126.737372,35.4463359 128.772074,37.8722824 C128.812252,37.9501908 128.867899,38.0183435 128.936687,38.0717939 C129.081588,38.231458 129.235387,38.3861756 129.399316,38.5345725 C129.581999,38.7000076 129.855852,38.754626 130.067625,38.6284885 C131.173306,37.9698397 130.8846,34.2467252 130.851745,34.0018015 C130.359959,30.3374275 128.753662,29.9820992 128.77358,29.9298168 C129.319302,28.5044504 130.203012,27.5831527 131.024367,27.5828779 C131.965229,27.5823969 132.960575,28.769229 133.754689,30.8390229 L134.878303,30.404687 C133.599452,27.0730382 132.076523,26.3741298 131.024025,26.3744046" id="Fill-45" fill="#29281F" sketch:type="MSShapeGroup"></path>
            <path d="M147.579055,23.6335267 C155.280151,20.3872748 160.470705,20.3409695 163.447912,23.4922748 L164.321492,22.660771 C160.959069,19.1017863 155.330185,19.0556183 147.113005,22.5194504 L147.579055,23.6335267" id="Fill-46" fill="#997456" sketch:type="MSShapeGroup"></path>
            <path d="M155.112594,26.9640076 C153.714374,26.1927557 152.248392,26.2012061 151.090281,26.9871603 C150.082957,27.6703359 149.464682,28.796229 149.302259,30.2428244 C149.012389,32.8247252 150.224641,36.0686412 151.538604,37.4784809 C151.667146,37.6162977 151.852225,37.6858244 152.039425,37.6665878 C152.226557,37.6474885 152.39384,37.5416183 152.491718,37.3804427 C153.84052,35.163626 153.236619,30.6564809 151.461259,28.7981527 C151.460712,28.7969847 151.190212,28.5366718 151.185695,28.5346107 C151.351745,28.3235573 151.542505,28.1388168 151.764476,27.9881527 C152.819918,27.2718626 153.951814,27.7024885 154.532717,28.0227786 C155.888022,28.7703969 156.807255,30.2461908 156.767967,31.6115115 L157.971253,31.6461374 C158.022793,29.8463435 156.847365,27.9209618 155.112594,26.9640076" id="Fill-47" fill="#29281F" sketch:type="MSShapeGroup"></path>
            <path d="M172.900821,32.4973588 C172.168241,29.9638244 169.984736,27.4594198 166.673101,28.7715649 C165.105818,29.3925649 163.488227,34.1234046 163.252567,35.6717481 L167.991855,41.776771 C171.866393,40.9009542 173.976523,36.2183435 172.900821,32.4973588" id="Fill-48" fill="#F4BC8A" sketch:type="MSShapeGroup"></path>
            <path d="M137.933676,38.5480382 C138.411773,38.1949771 138.959617,37.9098626 139.506845,37.7387252 L139.148597,36.5852824 C138.213347,36.8778168 137.273032,37.4384275 136.569336,38.1233206 C136.358042,38.329084 136.325941,38.6578931 136.493429,38.9008931 C137.096304,39.7752672 138.631075,39.7680534 138.790897,39.7776718 L138.862286,38.5713282 C138.66386,38.5596489 138.033949,38.5614351 137.933676,38.5480382" id="Fill-49" fill="#9F6F4E" sketch:type="MSShapeGroup"></path>
            <path d="M162.494456,100.188901 C158.748186,97.681542 159.732786,104.672893 157.043806,107.100489 C160.508556,106.980122 163.622519,106.755466 164.887748,106.077237 C165.32245,105.844817 165.724162,105.609237 166.107461,105.373863 C165.683436,103.193252 164.757974,101.324206 162.494456,100.188901" id="Fill-50" fill="#0080B8" sketch:type="MSShapeGroup"></path>
            <path d="M165.129637,97.5438626 C160.298494,92.6934122 154.914442,101.181443 153.03655,107.213641 C154.370226,107.178122 155.730664,107.146794 157.043806,107.100489 C159.732786,104.672893 158.748186,97.681542 162.494456,100.188901 C164.757974,101.324206 165.683436,103.193252 166.107461,105.373863 C166.76742,104.969756 167.365503,104.562076 167.893429,104.150137 C167.730322,101.397649 166.919781,98.9804275 165.129637,97.5438626" id="Fill-51" fill="#A4A99E" sketch:type="MSShapeGroup"></path>
            <path d="M165.129637,92.2531679 C156.112115,92.7558626 149.767009,99.3782824 147.530253,107.463992 C149.115948,107.328649 151.041752,107.26716 153.03655,107.213641 C154.914442,101.181443 160.298494,92.6934122 165.129637,97.5438626 C166.919781,98.9804275 167.730322,101.397649 167.893429,104.150137 C171.170431,101.593244 171.985763,98.8858244 171.625394,96.0890229 C170.280082,94.1503817 167.706776,92.2531679 165.129637,92.2531679" id="Fill-52" fill="#C1B668" sketch:type="MSShapeGroup"></path>
            <path d="M146.683094,84.3180534 C146.141821,82.6918015 145.49165,80.5111221 144.548939,78.5022672 C143.119233,77.936916 141.711157,77.2404122 140.330459,76.3987405 C139.882615,77.4539389 139.442574,78.5010992 139.012594,79.5380916 C140.331348,79.2892519 141.531417,79.5387099 142.069952,80.3498779 C146.109993,88.4591527 145.114648,98.8953053 141.1705,107.795206 C142.20835,107.869542 143.370637,107.853122 144.650992,107.75426 C147.05681,100.137168 148.830869,92.5085344 146.683094,84.3180534" id="Fill-53" fill="#ABA69E" sketch:type="MSShapeGroup"></path>
            <path d="M166.403217,82.9217481 C163.633265,83.8571985 160.760027,84.6182137 157.882615,84.979313 C151.947159,85.6946412 148.243806,83.1367863 145.985284,79.0261908 C145.504723,78.8663893 145.025941,78.6919542 144.548939,78.5022672 C145.49165,80.5111221 146.141821,82.6918015 146.683094,84.3180534 C148.830869,92.5085344 147.05681,100.137168 144.650992,107.75426 C144.822108,107.741756 144.989391,107.730695 145.165229,107.713382 C147.632923,95.1368092 154.361602,83.7246031 167.054552,84.6934427 C166.811157,84.1033588 166.590965,83.5119008 166.403217,82.9217481" id="Fill-54" fill="#C7CBBC" sketch:type="MSShapeGroup"></path>
            <path d="M145.165229,107.713382 C145.549624,107.679031 145.937372,107.640489 146.344148,107.58642 C146.711978,107.540389 147.110335,107.499443 147.530253,107.463992 C149.767009,99.3782824 156.112115,92.7558626 165.129637,92.2531679 C167.706776,92.2531679 170.280082,94.1503817 171.625394,96.0890229 C171.147844,92.3983359 168.634634,88.5517634 167.054552,84.6934427 C154.361602,83.7246031 147.632923,95.1368092 145.165229,107.713382" id="Fill-55" fill="#0080B8" sketch:type="MSShapeGroup"></path>
            <path d="M138.026146,81.9448015 C137.194798,84.0071069 136.427995,86.0088168 135.754278,87.9335115 C137.212047,91.261313 135.587406,95.0723664 133.201574,98.9180458 C133.10397,101.254267 133.479808,103.23413 134.521218,104.723321 C137.047228,100.19426 139.295825,95.4749618 140.093566,90.2699389 C140.712799,87.1659008 140.749418,83.4791298 138.026146,81.9448015" id="Fill-56" fill="#C9CDBE" sketch:type="MSShapeGroup"></path>
            <path d="M135.754278,87.9335115 C134.311157,92.064374 133.331006,95.812771 133.201574,98.9180458 C135.587406,95.0723664 137.212047,91.261313 135.754278,87.9335115" id="Fill-57" fill="#ACA25D" sketch:type="MSShapeGroup"></path>
            <path d="M142.069952,80.3498779 C141.531417,79.5387099 140.331348,79.2892519 139.012594,79.5380916 C138.944148,79.7017405 138.881109,79.8600992 138.813484,80.022855 C142.705339,82.7796031 142.606776,90.5919466 142.069952,94.8990992 C141.123135,99.3308092 139.571116,103.305786 137.778919,107.117802 C138.736413,107.469351 139.856194,107.702595 141.1705,107.795206 C145.114648,98.8953053 146.109993,88.4591527 142.069952,80.3498779" id="Fill-58" fill="#ACA25D" sketch:type="MSShapeGroup"></path>
            <path d="M138.813484,80.022855 C138.548049,80.6680382 138.283573,81.3097863 138.026146,81.9448015 C140.749418,83.4791298 140.712799,87.1659008 140.093566,90.2699389 C139.295825,95.4749618 137.047228,100.19426 134.521218,104.723321 C135.257974,105.777969 136.328337,106.586733 137.778919,107.117802 C139.571116,103.305786 141.123135,99.3308092 142.069952,94.8990992 C142.606776,90.5919466 142.705339,82.7796031 138.813484,80.022855" id="Fill-59" fill="#0080B8" sketch:type="MSShapeGroup"></path>
            <path d="M157.882615,84.979313 C160.760027,84.6182137 163.633265,83.8571985 166.403217,82.9217481 C165.962834,81.5367786 165.701848,80.1524962 165.759617,78.7750153 C158.748186,80.780229 152.150445,81.0774351 145.985284,79.0261908 C148.243806,83.1367863 151.947159,85.6946412 157.882615,84.979313" id="Fill-60" fill="#ACA25D" sketch:type="MSShapeGroup"></path>
            <path d="M172.881109,53.9846183 C171.091855,53.8600611 163.052361,54.4605191 163.052361,54.4605191 C163.020534,54.4865573 162.986927,54.5121832 162.956331,54.5389084 C160.496646,58.9513817 155.906229,62.6359542 155.906229,68.4465878 C163.214237,65.6253282 167.645859,59.437313 172.881109,53.9846183" id="Fill-61" fill="#0080B8" sketch:type="MSShapeGroup"></path>
            <path d="M137.673854,55.3752214 C138.599247,58.7768092 136.327105,62.1114809 132.80397,63.9130611 C133.16078,65.8726565 134.199863,66.7447634 135.575496,67.2229313 C138.659343,64.3168931 140.047502,58.643458 140.978576,54.0819695 C139.882615,54.3165878 138.74627,54.7718779 137.673854,55.3752214" id="Fill-62" fill="#7292BE" sketch:type="MSShapeGroup"></path>
            <path d="M137.673854,55.3752214 C135.01191,56.8745115 132.768583,59.3199008 132.67755,61.7694809 C132.646612,62.6033893 132.693634,63.3082748 132.80397,63.9130611 C136.327105,62.1114809 138.599247,58.7768092 137.673854,55.3752214" id="Fill-63" fill="#ACA25D" sketch:type="MSShapeGroup"></path>
            <path d="M144.429021,75.2999847 C142.388433,68.7617252 142.601437,60.2478626 143.186448,53.9218931 C142.498768,53.8516794 141.748939,53.9181145 140.978576,54.0819695 C140.047502,58.643458 138.659343,64.3168931 135.575496,67.2229313 C136.771663,67.6407786 138.204928,67.4358397 139.678987,67.7216412 C139.421013,69.1654885 139.113073,70.0970916 139.863039,72.3111603 C141.543669,73.6577939 142.493429,74.6778168 144.429021,75.2999847" id="Fill-64" fill="#C1B668" sketch:type="MSShapeGroup"></path>
            <path d="M166.013415,73.7273893 C166.077413,72.6342672 166.151745,71.5425878 166.223135,70.450084 C164.425667,71.4677023 162.538193,72.360145 160.51807,73.0757481 C156.565024,73.7372824 149.97707,73.0757481 149.97707,69.1075725 C149.97707,67.4723206 150.260027,65.8379618 150.774196,64.2370611 C149.292334,65.4118015 147.816496,66.5927252 146.353114,67.7859466 C144.098152,61.0638397 146.127515,56.5472137 146.127515,56.5472137 C145.762765,55.534542 145.314031,54.6164046 144.475154,54.2546183 C143.861259,61.369084 144.040178,68.8381908 145.958795,75.7132977 C152.139699,77.1451221 159.243395,75.6792214 166.013415,73.7273893" id="Fill-65" fill="#ACA25D" sketch:type="MSShapeGroup"></path>
            <path d="M144.475154,54.2546183 C144.07974,54.0834122 143.647981,53.9696412 143.186448,53.9218931 C142.601437,60.2478626 142.388433,68.7617252 144.429021,75.2999847 C144.931348,75.4617786 145.443463,75.5938244 145.958795,75.7132977 C144.040178,68.8381908 143.861259,61.369084 144.475154,54.2546183" id="Fill-66" fill="#0080B8" sketch:type="MSShapeGroup"></path>
            <path d="M180.3564,59.3753435 C176.133402,63.2228779 171.956537,67.0189542 167.131691,69.9131069 C169.944764,72.0617023 179.244079,65.7048168 180.228679,62.4546489 C180.564066,61.3475115 180.578987,60.3148473 180.3564,59.3753435" id="Fill-67" fill="#0080B8" sketch:type="MSShapeGroup"></path>
            <path d="M180.340246,59.3894962 C180.345654,59.3846183 180.351061,59.3794656 180.3564,59.3753435 C179.622313,56.2794122 176.25989,54.2160763 172.881109,53.9846183 C166.955784,60.155458 154.68063,68.9199466 155.906229,68.4465878 C155.906229,62.6359542 160.496646,58.9513817 162.956331,54.5389084 C158.948734,57.8265878 154.841205,61.011626 150.774196,64.2370611 C150.260027,65.8379618 149.97707,67.4723206 149.97707,69.1075725 C149.97707,73.0757481 156.565024,73.7372824 160.51807,73.0757481 C161.606229,72.6901908 162.653936,72.2502214 163.671595,71.7699237 C164.452704,68.8438244 165.599795,65.964374 167.105749,63.1558931 C170.50089,57.8559924 175.40616,57.7609084 180.340246,59.3894962" id="Fill-68" fill="#518ABC" sketch:type="MSShapeGroup"></path>
            <path d="M167.318138,69.7962443 C171.1436,67.4735573 174.566119,64.5895038 177.931896,61.5688702 C173.017043,60.6646794 168.346612,64.9270382 167.318138,69.7962443" id="Fill-69" fill="#ABA69E" sketch:type="MSShapeGroup"></path>
            <path d="M167.105749,63.1558931 C165.599795,65.964374 164.452704,68.8438244 163.671595,71.7699237 C164.543737,71.3583969 167.255168,69.8336183 167.318138,69.7962443 C168.346612,64.9270382 173.017043,60.6646794 177.931896,61.5688702 C178.736482,60.8473588 179.537509,60.1199389 180.340246,59.3894962 C175.40616,57.7609084 170.50089,57.8559924 167.105749,63.1558931" id="Fill-70" fill="#ACA25D" sketch:type="MSShapeGroup"></path>
            <path d="M175.907255,67.1118397 C172.532923,68.3262214 170.952567,68.7662595 167.450582,69.9083664 L167.835387,73.6217252 C171.886927,71.8729771 171.382272,73.2468855 175.568925,71.8601298 C175.84668,70.5725115 176.677687,68.3411985 175.907255,67.1118397" id="Fill-71" fill="#1A1918" sketch:type="MSShapeGroup"></path>
            <path d="M165.99384,54.2751603 C155.273101,57.6231603 157.168172,74.0314656 163.44011,81.7162977 C162.118412,73.4858321 162.163313,68.1535725 165.848255,60.0175038 C166.842368,57.8223282 168.150582,55.3242443 169.972827,54.0147099 L165.99384,54.2751603" id="Fill-72" fill="#DB3686" sketch:type="MSShapeGroup"></path>
            <path d="M180.364134,80.3182748 C186.638946,76.4579618 180.433128,69.2703282 175.411567,72.8776794 L166.891786,72.8776794 C163.363039,71.1286565 151.400548,70.6522748 151.821629,76.6421527 C151.978097,78.8550534 157.874264,82.0633817 159.77358,82.9402977 C157.664203,85.8311527 154.764203,89.3093435 155.062423,93.1179924 C155.518549,98.936458 161.24011,97.9241985 164.980698,96.3687786 C168.214579,95.0232443 170.570568,93.096626 173.362218,92.0035038 C175.942642,90.9924809 199.140999,102.141969 180.364134,80.3182748" id="Fill-73" fill="#DB3686" sketch:type="MSShapeGroup"></path>
            <path d="M175.508693,71.9868168 C173.421834,72.0313359 171.308419,72.6076794 169.361191,72.6960305 C168.289938,71.2027176 167.184257,68.6613511 166.390418,67.3445344 C157.355647,69.5511145 164.230732,77.5913435 167.894593,82.9387863 C176.256263,95.1437481 177.325188,77.6302977 175.508693,71.9868168" id="Fill-74" fill="#3E3B2F" sketch:type="MSShapeGroup"></path>
            <path d="M166.420945,67.3770305 C166.264613,66.7143969 167.725051,61.5592519 165.986174,59.9108779 C164.862697,58.7894504 164.392266,64.9529389 164.005886,64.7589924 C155.543532,60.5112672 155.511978,68.509313 156.331759,70.9948931 C157.224572,73.7053359 159.881246,74.6951298 162.508556,73.8735191 C163.706092,72.5297023 166.557837,68.2701603 166.420945,67.3770305" id="Fill-75" fill="#F4BC8A" sketch:type="MSShapeGroup"></path>
            <path d="M157.324709,55.1502901 C155.64271,53.9867481 155.283915,51.4259389 155.114442,49.249313 C153.03655,49.4220992 151.039904,50.0244809 148.97666,50.3319924 C149.966188,51.905687 150.293977,54.1289618 149.854483,56.0499466 L145.556194,56.5675496 C143.877618,61.5951832 145.524983,64.0462748 146.353114,67.7859466 C151.86564,63.2888321 157.556742,58.9734351 163.052361,54.4605191 L157.324709,55.1502901" id="Fill-76" fill="#F4BC8A" sketch:type="MSShapeGroup"></path>
            <path d="M144.908966,59.7862519 C144.381177,63.4057634 145.818686,66.7317786 146.333744,67.7491221 C150.196715,65.6171527 153.732375,62.1188321 156.972827,59.333916 L144.908966,59.7862519" id="Fill-77" fill="#1A1918" sketch:type="MSShapeGroup"></path>
            <path d="M42.631896,132.173115 C39.4202601,130.975496 33.4383984,126.969053 30.0770705,125.719427 L27.3206023,121.939977 C22.3468857,120.818481 11.1685147,117.361313 7.95051335,115.610229 C8.11122519,117.698298 10.6533196,121.035924 3.44490075,124.201244 C1.94099932,124.860099 10.0843258,127.776374 18.7723477,130.661183 C21.1930869,134.038588 24.71013,136.579405 28.7475702,137.747275 C33.5733744,139.140832 43.1910335,139.024656 42.631896,132.173115" id="Fill-78" fill="#977B65" sketch:type="MSShapeGroup"></path>
            <path d="M0.767214237,116.194198 C-3.20383299,125.722725 5.67665982,126.030374 8.12655715,122.034786 L8.93086927,120.297099 C13.0167009,112.008924 4.39000684,107.499511 0.767214237,116.194198" id="Fill-79" fill="#1A1918" sketch:type="MSShapeGroup"></path>
            <path d="M23.7481177,117.174718 C17.5658453,117.657008 12.3828884,132.431092 22.1848049,128.832053 L24.1669405,127.36574 C26.0897331,124.355962 29.7030116,116.709053 23.7481177,117.174718" id="Fill-80" fill="#1A1918" sketch:type="MSShapeGroup"></path>
            <path d="M41.6785763,86.907855 C33.2177276,86.907855 23.7180014,93.5529466 23.7180014,102.043656 C23.7180014,110.534916 33.2177276,117.657008 41.6785763,117.657008 C50.1379192,117.657008 58.4034908,113.701748 58.4034908,105.210145 C58.4034908,96.7183359 50.1379192,86.907855 41.6785763,86.907855" id="Fill-81" fill="#F4BC8A" sketch:type="MSShapeGroup"></path>
            <path d="M36.6270363,94.3788168 C34.5013005,92.609458 32.0456537,91.2009237 29.5256674,90.306145 L29.1242984,91.4452977 C31.5120465,92.2932214 33.8407255,93.6291374 35.8587269,95.3089084 L36.6270363,94.3788168" id="Fill-82" fill="#3E3B2F" sketch:type="MSShapeGroup"></path>
            <path d="M42.1722793,95.4480305 L52.0554415,95.4480305 L52.0554415,94.239626 L42.1722793,94.239626 L42.1722793,95.4480305 Z" id="Fill-83" fill="#3E3B2F" sketch:type="MSShapeGroup"></path>
            <path d="M40.1956879,110.714366 L39.7215606,110.342206 C39.0493498,111.20545 37.6073922,112.18542 36.4488706,112.972954 L36.4060917,113.002221 C35.6223135,111.602344 34.8765229,109.530489 34.8672827,107.736328 L34.2655031,107.739351 L33.6635181,107.742374 C33.6752909,110.035794 34.702601,112.633702 35.7154004,114.190977 C35.8037645,114.326802 35.9441478,114.420374 36.102601,114.451977 C36.261191,114.483992 36.4271047,114.449641 36.5607118,114.358198 L37.1238877,113.973534 C38.352293,113.138458 39.8810404,112.099336 40.6698152,111.086527 L40.1956879,110.714366" id="Fill-84" fill="#3E3B2F" sketch:type="MSShapeGroup"></path>
            <path d="M49.9034223,80.6775191 C49.3313484,83.1696947 48.2705681,85.3269466 46.9187543,86.9914656 C46.1046543,84.9067634 45.2880903,81.6135878 45.2141684,79.2507786 C45.0939083,81.9355954 42.3244353,84.2257863 41.4064339,85.7621069 C40.4937029,82.9017557 40.7166324,83.0524885 40.5450376,79.822313 C38.944627,82.8105191 39.5681725,86.0688626 37.0570157,87.4472366 L31.9141684,89.4512824 C54.2176591,86.3740382 55.449692,96.0610611 57.5669405,109.962008 C66.7687885,96.0265725 48.7550992,91.2944275 49.9034223,80.6775191" id="Fill-85" fill="#3F2D27" sketch:type="MSShapeGroup"></path>
            <path d="M56.0071184,109.389786 C56.0071184,111.947641 53.7190281,114.021008 50.898768,114.021008 C48.0768652,114.021008 45.7910335,111.947641 45.7910335,109.389786 C45.7910335,106.830763 48.0768652,104.756504 50.898768,104.756504 C53.7190281,104.756504 56.0071184,106.830763 56.0071184,109.389786" id="Fill-86" fill="#EB8F63" sketch:type="MSShapeGroup"></path>
            <path d="M28.2906229,100.300885 C28.5792608,98.2102061 29.2773443,97.5847405 29.5702943,97.6092672 C29.95859,97.6418321 30.6928816,98.6411756 30.630527,100.80413 L31.3013005,100.823573 L31.9722108,100.843015 C32.0464066,98.2678473 31.1046543,96.3859542 29.6819986,96.2664809 C29.1741958,96.2240229 27.4774127,96.3757176 26.9611225,100.115733 L27.6258727,100.208344 L28.2906229,100.300885" id="Fill-87" fill="#3E3B2F" sketch:type="MSShapeGroup"></path>
            <path d="M46.6710472,102.66816 C46.6731006,101.93016 47.1474333,100.413832 47.857974,99.8102137 C48.1449692,99.566458 48.3618754,99.5685191 48.5001369,99.5912595 C49.1696099,99.7029695 49.1355921,101.005496 49.0431211,102.330076 C49.0170431,102.707252 48.9942505,103.033176 49.0035592,103.304618 L49.6742642,103.281328 L50.3449692,103.258313 C50.3381246,103.057015 50.3596167,102.749435 50.3823409,102.42413 C50.4824778,100.98784 50.6499658,98.5838092 48.7190965,98.262145 C48.1075975,98.1609466 47.51013,98.3407405 46.9907598,98.7818779 C45.9108145,99.6990534 45.3315537,101.626084 45.3287474,102.664588 L45.9999316,102.666374 L46.6710472,102.66816" id="Fill-88" fill="#3E3B2F" sketch:type="MSShapeGroup"></path>
            <path d="M62.7785079,103.983534 C58.9049966,97.9222748 51.8067077,114.976725 50.7464066,116.965931 L43.8563997,123.260435 C53.3494182,125.719427 67.0668036,110.693824 62.7785079,103.983534" id="Fill-89" fill="#DF6A43" sketch:type="MSShapeGroup"></path>
            <path d="M59.7972621,99.9287252 C57.5991786,100.418847 56.5031485,105.001702 57.5024641,107.469351 C58.357358,109.580298 61.2057495,109.19742 62.908282,109.278969 C65.5252567,105.762992 66.8383984,98.3556489 59.7972621,99.9287252" id="Fill-90" fill="#F4BC8A" sketch:type="MSShapeGroup"></path>
            <path d="M169.176181,38.2608626 C164.863929,38.2608626 161.368241,42.0262977 161.368241,46.6714656 C161.368241,51.3165649 164.863929,55.0820687 169.176181,55.0820687 C173.488364,55.0820687 176.98412,51.3165649 176.98412,46.6714656 C176.98412,42.0262977 173.488364,38.2608626 169.176181,38.2608626 L169.176181,38.2608626 Z M169.482067,53.365542 C166.015811,53.365542 163.205407,50.4454198 163.205407,46.843084 C163.205407,43.2408855 166.015811,40.320626 169.482067,40.320626 C172.948939,40.320626 175.759069,43.2408855 175.759069,46.843084 C175.759069,50.4454198 172.948939,53.365542 169.482067,53.365542 L169.482067,53.365542 Z" id="Fill-91" fill="#2F9295" sketch:type="MSShapeGroup"></path>
            <path d="M174.205818,17.2228473 C173.957153,16.2704962 171.6564,13.7001374 169.641205,14.4908321 C168.702875,14.8589389 169.195483,16.2490611 168.584394,16.9099771 C167.808761,17.7490382 166.385626,14.1960992 163.91499,14.1960992 C161.095551,14.1960992 160.862149,17.5339313 160.392129,17.607855 C159.988296,17.6712672 156.987337,12.8563359 155.067899,18.3076565 C154.36167,20.3132824 156.357358,22.9691069 158.096509,23.4587481 C160.239767,24.062229 161.283641,20.4397634 161.638261,18.9254962 C162.106639,19.0286183 162.671253,20.0892443 163.107324,20.4447786 C164.308693,21.4241298 166.096715,22.5093511 167.658179,22.7368244 C170.063244,23.0872061 169.924846,20.5770305 170.026831,18.8172901 C171.064203,19.7963664 175.444764,21.9665344 174.205818,17.2228473" id="Fill-92" fill="#B69160" sketch:type="MSShapeGroup"></path>
            <path d="M114.260917,94.347145 C114.003354,91.2347252 114.078371,68.2825267 109.809035,60.2289695 C108.822313,58.3675496 107.210951,57.6860916 105.635318,56.471229 C103.437577,54.7767557 104.781725,54.2595649 104.315332,51.8569084 C102.4705,51.097542 90.200616,54.2809313 90.6483915,56.3604809 C90.7250513,56.7166336 93.0776865,58.6725878 93.8023956,59.2366336 C93.8023956,59.2366336 77.7402464,73.2808931 75.5370979,74.2515191 C72.6494182,75.5236794 59.5195072,73.5039695 59.3470226,76.3543588 C59.3174538,76.8420076 59.9196441,77.7621374 59.0951403,80.2447634 C58.5394251,81.9183511 66.6894593,83.0446565 68.1813142,82.8628702 C68.501848,83.9282366 74.8411362,86.8053511 76.1889117,86.7862519 C82.9409309,86.6908244 87.5944559,86.4336031 92.3483915,81.8511603 C91.5926078,82.5796794 92.6498289,98.7420992 92.7854209,100.557763 C92.7854894,100.558656 92.7855578,100.559618 92.7856263,100.560443 C93.16564,105.642695 114.539151,97.7066183 114.260917,94.347145 L114.260917,94.347145 Z M85.90705,80.091145 C84.4340178,79.5396718 81.9028063,80.5912977 80.4325804,80.1221298 C80.8982204,79.0629466 87.9138946,71.4371985 92.1885695,67.1626107 C92.2401095,68.1993969 92.2633128,69.2374885 92.2665982,70.2724885 C92.2710472,71.6832901 92.2461328,73.0920305 92.2265572,74.5004275 C89.4284736,77.7218092 86.7852841,80.4199542 85.90705,80.091145 L85.90705,80.091145 Z" id="Fill-93" fill="#434344" sketch:type="MSShapeGroup"></path>
            <path d="M71.945243,79.7441985 C68.1157426,79.3006565 66.7043806,83.6649695 66.6355236,84.8170382 C66.5709103,85.8972443 68.0781656,86.7999237 68.659822,85.7557176 C67.9753593,88.3664046 70.7434634,87.874771 70.9869952,86.9923588 C70.9925394,87.3805267 70.7132101,89.4656412 72.8067077,88.8126947 C73.9336756,88.4612137 73.3141684,91.2519008 75.6954141,89.6617176 C76.7036961,88.9883664 77.2698836,86.8056947 77.6947296,85.7557176 C78.2177276,84.4632214 75.504449,80.1564122 71.945243,79.7441985" id="Fill-94" fill="#F4BC8A" sketch:type="MSShapeGroup"></path>
            <path d="M61.2727584,74.9571603 C59.5696099,74.5996336 56.4475702,74.1880382 56.0323751,76.3872672 C55.8365503,77.4246031 54.5672142,80.7299389 55.8424367,80.7951374 C56.402601,80.8237863 57.2372348,78.9256107 57.2880903,78.8373969 C56.9830253,80.4169313 56.3950719,81.2414275 57.211499,81.9288626 C58.0416838,82.6279771 58.3583162,81.376084 59.1765914,79.9625344 C58.9052019,81.1825496 58.8724846,83.3905725 59.5564682,83.6946489 C60.1773443,83.9707634 61.6427789,81.3669466 61.5347707,81.7500992 C59.5696099,88.7218702 64.2574264,81.7659008 64.4169747,80.6775191 C64.9409993,77.1023206 61.3353183,75.0470229 61.2727584,74.9571603" id="Fill-95" fill="#F4BC8A" sketch:type="MSShapeGroup"></path>
            <path d="M106.417043,0.25819084 C102.038193,-0.383419847 98.0263518,1.49057252 93.7643395,1.98935115 C87.1598905,2.75916031 84.9314168,1.77664885 78.4334018,3.47551908 C62.4360027,7.65687786 54.2104038,29.7106565 73.1963039,32.4632824 L112.78152,42.4271069 C125.128816,32.7579466 123.933196,2.82277863 106.417043,0.25819084" id="Fill-96" fill="#5A432B" sketch:type="MSShapeGroup"></path>
            <path d="M91.5593429,12.825626 C92.9852841,17.9587863 99.1342916,22.4963664 99.3065708,27.8220305 C93.8035592,24.2414733 81.8464066,15.0750763 81.8464066,15.0750763 C57.6890486,21.4349847 60.0982204,54.4911603 86.1550308,56.3137634 C99.6023272,57.2540229 113.254209,49.2959618 114.38193,33.8167863 C107.049829,28.4532672 96.5869268,20.5266031 91.5593429,12.825626" id="Fill-97" fill="#F4BC8A" sketch:type="MSShapeGroup"></path>
            <path d="M76.9194387,28.0249084 C74.9491444,27.1857786 72.8793977,26.643855 70.877755,26.1197939 C68.5713895,25.5159008 66.39295,24.9456031 64.3227242,23.9571832 L63.8055441,25.0481756 C65.9789185,26.0859237 68.3149213,26.6974427 70.5739904,27.2889695 C72.533744,27.8020382 74.5600274,28.3326947 76.4492813,29.1371298 L76.9194387,28.0249084" id="Fill-98" fill="#29281F" sketch:type="MSShapeGroup"></path>
            <path d="M89.0804928,24.2701221 C91.3010267,23.7059389 93.5158111,23.0104656 95.6576318,22.3377328 C98.498152,21.445771 101.435318,20.5233053 104.385284,19.910687 L104.141342,18.7274275 C101.13306,19.3522061 98.1666667,20.2838092 95.298152,21.1847023 C93.171937,21.8524198 90.973306,22.5428092 88.7850103,23.0987481 L89.0804928,24.2701221" id="Fill-99" fill="#29281F" sketch:type="MSShapeGroup"></path>
            <path d="M86.4186858,46.4854198 L85.8168378,46.4937328 C85.831896,47.5886412 85.4523614,49.007687 85.0852156,50.380084 C84.9441478,50.9077176 84.8097878,51.4134351 84.6971937,51.8971679 C83.1976044,51.4659237 82.1756331,50.333916 81.2622861,48.1340687 L80.1511978,48.598771 C80.9409309,50.5008626 82.2125257,52.7448168 85.0583847,53.2163893 C85.3797399,53.269771 85.6850103,53.0565878 85.7472279,52.7356794 C85.8671458,52.1164656 86.0521561,51.4252519 86.2479124,50.6934351 C86.6362081,49.2414122 87.0379192,47.739855 87.0205339,46.4770382 L86.4186858,46.4854198" id="Fill-100" fill="#975E30" sketch:type="MSShapeGroup"></path>
            <path d="M105.067351,42.0908092 C105.467556,44.7099466 103.338193,47.2113969 100.310335,47.6769924 C97.2815195,48.1427939 94.5037645,46.3979618 94.1039699,43.7785496 C93.7039014,41.1595496 95.8323066,38.6580305 98.8613279,38.1927786 C101.889185,37.7267023 104.667556,39.4718092 105.067351,42.0908092" id="Fill-101" fill="#ED9B6A" sketch:type="MSShapeGroup"></path>
            <path d="M115.616153,27.2010992 C112.413552,23.9663206 109.36564,27.5795802 109.203765,31.2027328 L113.36037,38.4383893 C116.948665,36.4811985 118.905065,30.5207252 115.616153,27.2010992" id="Fill-102" fill="#F4BC8A" sketch:type="MSShapeGroup"></path>
            <path d="M73.4867214,28.7187328 C71.6670773,28.3090611 69.6359343,29.367145 68.6572211,31.2346794 C67.6096509,33.2334351 67.9774127,35.5280229 69.6064339,37.5712977 C69.8803559,37.9927176 70.2289528,38.3668702 70.6505818,38.6875038 C70.6641342,38.6978092 70.6800821,38.7026183 70.6941821,38.711687 C70.7238877,38.7310611 70.7540041,38.7484427 70.7859685,38.7627328 C70.8106776,38.7737252 70.8353867,38.7825191 70.8609172,38.7902137 C70.8934292,38.8002443 70.9256674,38.8075954 70.9593429,38.8124733 C70.9862423,38.8165267 71.0125941,38.8192061 71.0399042,38.8198244 C71.0731006,38.8206489 71.105681,38.8179695 71.1388775,38.8138473 C71.166872,38.8104122 71.1940452,38.8063588 71.2214921,38.7993511 C71.2336756,38.7962595 71.2461328,38.7968092 71.2581793,38.7928931 C71.2797399,38.7860229 71.2979466,38.7733817 71.3184805,38.7645878 C71.3354552,38.7571679 71.353525,38.7546947 71.3699521,38.7460382 C71.3780972,38.7417099 71.384052,38.7344962 71.3919233,38.7298931 C71.4236824,38.7113435 71.4514716,38.6890153 71.4793977,38.6657939 C71.4989049,38.6497176 71.5193018,38.6352214 71.5365503,38.6171527 C71.5621492,38.5909084 71.5824093,38.5607481 71.603217,38.5304504 C71.6170431,38.5103893 71.6328542,38.4923206 71.6442847,38.4709542 C71.6621492,38.4381145 71.673306,38.4019771 71.6854894,38.3661145 C71.6932238,38.3435802 71.7041068,38.3224885 71.7094456,38.2991985 C71.7099932,38.2965191 71.7115674,38.2941145 71.712115,38.2914351 C72.0208077,36.8425725 71.7535934,35.9212061 71.3941821,35.1101069 C71.3092402,34.5501145 71.2193703,33.9930076 71.1279261,33.4440076 C70.9869952,32.5993817 70.8413415,31.7261069 70.7306639,30.8740611 C70.7258727,30.8377863 70.7173854,30.8028168 70.7072553,30.7688092 C71.4305955,30.1396336 72.3508556,29.8438015 73.1930185,30.0334885 C74.7581109,30.3857252 75.728679,32.2913893 75.8561259,35.2620076 L76.5266256,35.233084 L77.1971253,35.2040916 C76.9765914,30.054855 74.5288159,28.9532824 73.4867214,28.7187328" id="Fill-103" fill="#29281F" sketch:type="MSShapeGroup"></path>
            <path d="M100.357837,33.0109084 C99.549076,30.5403053 98.3273101,26.8066107 95.8867214,25.9691985 C94.8269678,25.6053511 93.687885,25.8293893 92.5009582,26.634855 C92.1852156,26.8494809 91.9036277,27.1218855 91.6555784,27.4366794 C90.8437372,28.1691832 90.392334,30.5916947 90.5284052,31.9624427 C90.7164956,33.8576641 91.5620123,35.4295725 92.7856263,36.2301603 C92.8319644,36.3853588 93.3830938,36.549626 93.3830938,36.549626 C93.7527721,36.720145 94.1548939,36.6423053 94.4162218,36.3341069 C95.3010951,35.2903817 94.0435318,29.9056336 92.8364819,28.5159237 C92.7793292,28.4502443 92.7119097,28.3987176 92.6388775,28.3607252 C92.8186174,28.114771 93.0234771,27.9068092 93.2531828,27.7507176 C94.0837782,27.187084 94.8032854,27.0211679 95.4524298,27.2440382 C97.2605065,27.8645573 98.4011636,31.3492748 99.0825462,33.4312977 L99.3577687,34.2595725 L99.9921971,34.0396565 L100.626557,33.8198779 L100.357837,33.0109084" id="Fill-104" fill="#29281F" sketch:type="MSShapeGroup"></path>
            <path d="M79.9482546,42.1764809 L79.747707,41.6067328 C79.1507871,41.8184733 78.6462697,41.8377099 78.2887748,41.6625191 C78.1054757,41.5727939 77.9552361,41.4198626 77.8327858,41.2181527 L79.8596167,39.6612214 L79.1221766,38.7059847 L76.7218344,40.5500229 C76.5175907,40.7069389 76.432512,40.9788626 76.5141684,41.223855 C76.7526352,41.9385649 77.1836413,42.465855 77.7607803,42.7484962 C78.4148528,43.0689924 79.2406571,43.0680992 80.1488022,42.7461603 L79.9482546,42.1764809" id="Fill-105" fill="#9F6F4E" sketch:type="MSShapeGroup"></path>
            <path d="M111.014511,4.95859542 C110.660233,6.47258779 97.2455852,7.1720458 93.2865845,6.02705344 C92.0288843,6.54754198 92.9167693,8.02271756 93.5253251,8.58683206 C95.2735797,10.2071756 98.3109514,10.3214275 102.412526,10.2672901 C106.985147,10.2069695 114.442847,9.9709771 116.335866,8.05363359 C117.386311,6.98970992 114.265503,5.01328244 111.014511,4.95859542" id="Fill-106" fill="#715234" sketch:type="MSShapeGroup"></path>
        </g>
    </g>
</svg>