<?xml version="1.0" encoding="UTF-8" standalone="no"?>
<svg width="206px" height="205px" viewBox="0 0 206 205" version="1.1" xmlns="http://www.w3.org/2000/svg" xmlns:xlink="http://www.w3.org/1999/xlink" xmlns:sketch="http://www.bohemiancoding.com/sketch/ns">
    <title>mountain</title>
    <description>Created with Sketch (http://www.bohemiancoding.com/sketch)</description>
    <defs></defs>
    <g id="Page-1" stroke="none" stroke-width="1" fill="none" fill-rule="evenodd" sketch:type="MSPage">
        <g id="mountain" sketch:type="MSLayerGroup" transform="translate(3.000000, 3.000000)">
            <g id="layer1" sketch:type="MSShapeGroup">
                <path d="M0,197 C4.85654677,168.740426 59.4280448,2.49030655 103.029437,2.00118549 C148.218552,1.48972106 195.726028,166.632749 200,195.854922" id="path2383" stroke="#000000" stroke-width="5" fill="#DBDEE3"></path>
                <path d="M121,201.089719 C112.870996,193.784621 102.395645,138.070031 97.3369644,128.602166 C92.593804,119.724823 77.7673703,154.354129 75.2005821,144.406279 C60.122479,85.9696262 78.2291151,16 78.2291151,16 C78.2291151,16 51.9063527,67.536492 34.5246507,108.782628 C6.43005223,175.450081 5,202 5,202" id="path3205" opacity="0.3" fill="#666666"></path>
                <path d="M103.464803,4.00286745 C125.926357,3.61094989 150.115464,43.505778 154.941395,54.9086792 C159.767325,66.3115803 167.558517,83.640801 162.180292,85.04492 C155.020764,86.9140926 134.431189,66.3115803 129.203099,66.3115803 C123.975009,66.3115803 118.344754,105 111.508021,105 C104.671283,105 97.8345489,67.9405662 93.0086185,67.9405662 C88.182688,67.9405662 76.5200237,94.4115898 71.6940893,94.4115898 C66.8681589,94.4115898 67.6724826,65.4970894 63.6508719,64.6825945 C59.6292652,63.8681035 56.4897308,86.2052399 48.3687608,87.8956463 C46.2079183,88.3454325 44.3471501,75.2710047 48.3687568,64.275349 C52.3903675,53.2796933 64.9438548,29.9101817 76.1178599,18.2564949 C86.3300095,7.60595873 91.2177838,4.20954004 103.464803,4.00286745 L103.464803,4.00286745 Z" id="path3221" opacity="0.497992" fill="#374548"></path>
                <path d="M103.464803,0.00286745461 C125.926357,-0.389050113 150.115464,39.505778 154.941395,50.9086792 C159.767325,62.3115803 167.558517,79.640801 162.180292,81.04492 C155.020764,82.9140926 134.431189,62.3115803 129.203099,62.3115803 C123.975009,62.3115803 118.344754,101 111.508021,101 C104.671283,101 97.8345489,63.9405662 93.0086185,63.9405662 C88.182688,63.9405662 76.5200237,90.4115898 71.6940893,90.4115898 C66.8681589,90.4115898 67.6724826,61.4970894 63.6508719,60.6825945 C59.6292652,59.8681035 56.4897308,82.2052399 48.3687608,83.8956463 C46.2079183,84.3454325 44.3471501,71.2710047 48.3687568,60.275349 C52.3903675,49.2796933 64.9438548,25.9101817 76.1178599,14.2564949 C86.3300095,3.60595873 91.2177838,0.209540041 103.464803,0.00286745461 L103.464803,0.00286745461 Z" id="path2385" stroke="#000000" fill="#FFFFFF"></path>
                <path d="M99,72 C104.543593,83.4968857 112.781726,99.9385176 120,82.2792704 C118.620648,86.1761186 114.41671,100.405085 111.511134,99.9911522 C109.432123,99.6949725 105.006799,90.1174118 104.062206,86.9658077 C102.582943,82.0302998 100.709925,76.9930397 99,72 L99,72 Z" id="path3180" fill="#C5D0D3"></path>
                <path d="M129,61.135727 C136.86905,59.9034654 144.43545,67.3997161 148.672631,69.9669285 C152.909813,72.5341369 156.138142,72.3287586 157.752306,72.0206952 C159.36647,71.7126318 161.283289,66.0134249 161.283289,66.0134249 C161.538061,66.1106734 165.592485,79.1130614 163.300998,79.7223243 C161.807649,80.1193776 158.651484,81.2328924 147.462007,72.8422043 C136.709124,64.7789024 130.043408,60.3771147 129,61.135727 L129,61.135727 Z" id="path3203" fill="#C5D0D3"></path>
                <path d="M77.0468871,68.4039095 C72.5130181,67.2043901 66.8933765,56.5151125 68.1824848,41.725726 C69.4715972,26.9363354 83.8399803,7 83.8399803,7 C83.8399803,7 68.2274192,21.6458014 61.4953989,33.9942204 C54.7633746,46.3426433 49.4637,55.8193393 47.7448836,61.7063785 C46.0260712,67.5934137 44.8801963,82.8135637 47.7448836,83.2443191 C50.609575,83.6750786 55.4795495,77.0701096 57.3415993,71.0394853 C59.2036451,65.008861 61.6386323,59.9833407 62.9277446,60.4141001 C64.2168529,60.8448596 65.792432,65.2960353 67.6544818,76.2085907 C69.5165315,87.1211502 68.9435941,89.7057029 71.0921106,89.9928772 C73.2406271,90.2800475 79.6861807,81.8084596 81.6914638,78.2187988 C83.696747,74.6291421 90.5389937,65.1897636 89.9660562,65.1897636 C89.3931187,65.1897636 79.9909877,69.1828249 77.0468871,68.4039095 L77.0468871,68.4039095 Z" id="path3215" opacity="0.8" fill="#B7C4C8"></path>
                <path d="M46,69.513979 C47.1454412,61.1866124 47.7181657,59.4637111 52.2999344,51.1363445 C56.881703,42.808982 62.0361922,31.8972614 72.3451747,19.8369399 C82.6541531,7.77661839 88.0950046,0.597856747 101.553952,0.0235562982 C115.0129,-0.550748171 125.894603,9.49951974 132.194533,16.6782854 C138.494468,23.857047 149.948891,38.2145743 154.817018,48.8391427 C159.685149,59.4637111 164.266918,71.8111808 164.839638,76.4055924 C165.412359,81 164.266918,81 164.266918,81" id="path3219" stroke="#000000" stroke-width="5"></path>
                <path d="M113.151838,121.12802 C107.766428,120.224551 107.31034,124.318812 107.018267,126.639391 C106.726195,128.959965 110.012035,130.917953 111.472409,130.99047 C116.28563,131.229481 116.688651,126.90626 116.948808,125.479099 C117.394915,123.031878 114.824655,121.408656 113.151838,121.12802 L113.151838,121.12802 Z" id="path3282" opacity="0.80321284" fill="#4D4D4D"></path>
                <path d="M113.151838,121.12802 C107.766428,120.224551 107.31034,124.318812 107.018267,126.639391 C106.726195,128.959965 110.012035,130.917953 111.472409,130.99047 C116.28563,131.229481 116.688651,126.90626 116.948808,125.479099 C117.394915,123.031878 114.824655,121.408656 113.151838,121.12802 L113.151838,121.12802 Z" id="path3247" stroke="#000000" fill="#FFFFFF"></path>
                <path d="M69.7436469,99.0574967 C66.9792409,98.601883 64.7576789,100.908198 64.1602254,104.055013 C63.4065133,108.024857 65.4114133,110.793078 68.089302,110.996009 C69.7404121,111.12113 71.3290614,108.289022 71.8805097,104.679702 C72.4319619,101.070385 70.9638417,99.2586001 69.7436469,99.0574967 L69.7436469,99.0574967 Z" id="path3256" opacity="0.74698792" fill="#333333"></path>
                <path d="M69.7436469,98.0574967 C66.9792409,97.601883 64.7576789,99.9081979 64.1602254,103.055013 C63.4065133,107.024857 65.4114133,109.793078 68.089302,109.996009 C69.7404121,110.12113 71.3290614,107.289022 71.8805097,103.679702 C72.4319619,100.070385 70.9638417,98.2586001 69.7436469,98.0574967 L69.7436469,98.0574967 Z" id="path3249" stroke="#000000" fill="#FFFFFF"></path>
                <path d="M108.549523,122 C108.039318,125.487154 108.804622,126.358946 109.897919,127.19586 C110.991219,128.032778 114.999973,128.172264 114.999973,128.172264 C115.008585,128.194237 112.98911,131.416305 108.841067,129.253283 C105.181465,127.344961 108.016877,122.948099 108.549523,122 L108.549523,122 Z" id="path3252" fill="#C5D0D3"></path>
                <path d="M65.9586417,100.001423 C63.8530751,103.011523 63.749737,104.558424 64.2488364,106.614796 C64.8377453,109.041196 66.6105899,109.628435 67.7202596,109.946724 C69.0705113,110.334021 70,108.482692 70,108.482692 C70,108.482692 68.0311356,108.735113 66.7876401,106.96818 C65.5441446,105.201248 66.0104543,99.9004546 65.9586417,100.001423 L65.9586417,100.001423 Z" id="path3254" fill="#C5D0D3"></path>
            </g>
        </g>
    </g>
</svg>