<?xml version="1.0" encoding="UTF-8" standalone="no"?>
<svg width="83px" height="84px" viewBox="0 0 83 84" version="1.1" xmlns="http://www.w3.org/2000/svg" xmlns:xlink="http://www.w3.org/1999/xlink" xmlns:sketch="http://www.bohemiancoding.com/sketch/ns">
    <title>shit</title>
    <description>Created with Sketch (http://www.bohemiancoding.com/sketch)</description>
    <defs>
        <linearGradient x1="50%" y1="0%" x2="50%" y2="100%" id="linearGradient-1">
            <stop stop-color="#533402" offset="0%"></stop>
            <stop stop-color="#563F18" offset="51.5960741%"></stop>
            <stop stop-color="#412F11" offset="66.1295835%"></stop>
            <stop stop-color="#5B431D" offset="82.2342832%"></stop>
            <stop stop-color="#403114" offset="100%"></stop>
        </linearGradient>
    </defs>
    <g id="Page-1" stroke="none" stroke-width="1" fill="none" fill-rule="evenodd" sketch:type="MSPage">
        <path d="M14.254467,83 C10.9399318,83 6.94458945,80.6567908 5.33090086,77.7667987 L1.69373211,71.2529093 C0.0799178146,68.362692 0.931923043,64.4195361 3.59454137,62.447252 L11.8579199,56.3263108 C14.5215222,54.3532979 16.3041167,50.0975858 15.8389896,46.8176214 L15.4156499,43.8323319 C14.9507317,40.5538407 17.0919298,36.9800649 20.2119093,35.8450748 L27.8983867,33.0488784 C31.0122058,31.9161293 32.5083444,28.512144 31.241423,25.4490492 L30.5640947,23.8114411 C29.2965835,20.7469204 30.2790804,16.4732065 32.7439321,14.2788589 L46.4439821,2.0823158 C48.9153843,-0.117863231 50.1650513,0.686380739 49.2420933,3.85495077 L45.7947086,15.6900284 C44.8686606,18.8692067 46.4861785,22.7235292 49.3965463,24.2929723 L69.3435225,35.0495661 C72.2588105,36.6216625 73.7796021,40.4423376 72.7369266,43.5934948 L70.7131801,49.7096291 C69.6720174,52.8562142 71.1764555,56.7213768 74.0631318,58.3369442 L77.8148033,60.4366177 C80.7060932,62.0547672 82.5526782,66.0143927 81.9436733,69.2572229 L80.4690473,77.1093135 C79.8580693,80.3626498 76.6835315,83 73.361277,83 L14.254467,83 Z" id="shit" stroke="#3C1B07" fill="url(#linearGradient-1)" sketch:type="MSShapeGroup"></path>
    </g>
</svg>